G04 (created by PCBNEW (2013-07-07 BZR 4022)-stable) date 1/28/2014 1:23:19 PM*
%MOIN*%
G04 Gerber Fmt 3.4, Leading zero omitted, Abs format*
%FSLAX34Y34*%
G01*
G70*
G90*
G04 APERTURE LIST*
%ADD10C,0.00590551*%
%ADD11R,0.055X0.055*%
%ADD12C,0.055*%
%ADD13R,0.0709X0.0629*%
%ADD14C,0.0787402*%
%ADD15C,0.035*%
%ADD16C,0.01*%
G04 APERTURE END LIST*
G54D10*
G54D11*
X64950Y-43500D03*
G54D12*
X63950Y-43500D03*
X63950Y-42500D03*
G54D11*
X65300Y-48550D03*
G54D12*
X64300Y-48550D03*
X64300Y-47550D03*
G54D13*
X74500Y-39959D03*
X74500Y-38841D03*
G54D14*
X79930Y-42480D03*
X77990Y-42480D03*
X79930Y-40520D03*
X77970Y-40520D03*
G54D15*
X73050Y-38850D03*
X74250Y-41050D03*
X70800Y-42450D03*
X69850Y-43000D03*
X71000Y-48750D03*
X66600Y-41800D03*
X65350Y-38600D03*
X68600Y-43650D03*
G54D16*
X74500Y-38841D02*
X73059Y-38841D01*
X73059Y-38841D02*
X73050Y-38850D01*
X74500Y-40800D02*
X74500Y-39959D01*
X74250Y-41050D02*
X74500Y-40800D01*
X64600Y-42850D02*
X63950Y-43500D01*
X65950Y-42850D02*
X64600Y-42850D01*
X66300Y-42500D02*
X65950Y-42850D01*
X70750Y-42500D02*
X66300Y-42500D01*
X70800Y-42450D02*
X70750Y-42500D01*
X69850Y-47600D02*
X69850Y-43000D01*
X71000Y-48750D02*
X69850Y-47600D01*
X65900Y-42500D02*
X63950Y-42500D01*
X66600Y-41800D02*
X65900Y-42500D01*
X64300Y-48550D02*
X64300Y-48500D01*
X63000Y-40950D02*
X65350Y-38600D01*
X63000Y-47200D02*
X63000Y-40950D01*
X64300Y-48500D02*
X63000Y-47200D01*
X64300Y-47550D02*
X64700Y-47550D01*
X64700Y-47550D02*
X68600Y-43650D01*
G54D10*
G36*
X82350Y-54600D02*
X80573Y-54600D01*
X80573Y-42352D01*
X80573Y-40392D01*
X80476Y-40155D01*
X80295Y-39974D01*
X80058Y-39876D01*
X79802Y-39876D01*
X79565Y-39973D01*
X79384Y-40154D01*
X79286Y-40391D01*
X79286Y-40647D01*
X79383Y-40884D01*
X79564Y-41065D01*
X79801Y-41163D01*
X80057Y-41163D01*
X80294Y-41066D01*
X80475Y-40885D01*
X80573Y-40648D01*
X80573Y-40392D01*
X80573Y-42352D01*
X80476Y-42115D01*
X80295Y-41934D01*
X80058Y-41836D01*
X79802Y-41836D01*
X79565Y-41933D01*
X79384Y-42114D01*
X79286Y-42351D01*
X79286Y-42607D01*
X79383Y-42844D01*
X79564Y-43025D01*
X79801Y-43123D01*
X80057Y-43123D01*
X80294Y-43026D01*
X80475Y-42845D01*
X80573Y-42608D01*
X80573Y-42352D01*
X80573Y-54600D01*
X78633Y-54600D01*
X78633Y-42352D01*
X78613Y-42304D01*
X78613Y-40392D01*
X78516Y-40155D01*
X78335Y-39974D01*
X78098Y-39876D01*
X77842Y-39876D01*
X77605Y-39973D01*
X77424Y-40154D01*
X77326Y-40391D01*
X77326Y-40647D01*
X77423Y-40884D01*
X77604Y-41065D01*
X77841Y-41163D01*
X78097Y-41163D01*
X78334Y-41066D01*
X78515Y-40885D01*
X78613Y-40648D01*
X78613Y-40392D01*
X78613Y-42304D01*
X78536Y-42115D01*
X78355Y-41934D01*
X78118Y-41836D01*
X77862Y-41836D01*
X77625Y-41933D01*
X77444Y-42114D01*
X77346Y-42351D01*
X77346Y-42607D01*
X77443Y-42844D01*
X77624Y-43025D01*
X77861Y-43123D01*
X78117Y-43123D01*
X78354Y-43026D01*
X78535Y-42845D01*
X78633Y-42608D01*
X78633Y-42352D01*
X78633Y-54600D01*
X75104Y-54600D01*
X75104Y-40223D01*
X75104Y-39594D01*
X75066Y-39503D01*
X74996Y-39432D01*
X74917Y-39400D01*
X74996Y-39367D01*
X75066Y-39296D01*
X75104Y-39205D01*
X75104Y-38953D01*
X75042Y-38891D01*
X74550Y-38891D01*
X74550Y-38898D01*
X74450Y-38898D01*
X74450Y-38891D01*
X73958Y-38891D01*
X73895Y-38953D01*
X73895Y-39205D01*
X73933Y-39296D01*
X74003Y-39367D01*
X74082Y-39400D01*
X74004Y-39432D01*
X73933Y-39502D01*
X73895Y-39594D01*
X73895Y-39694D01*
X73895Y-40323D01*
X73933Y-40414D01*
X74003Y-40485D01*
X74095Y-40523D01*
X74195Y-40523D01*
X74200Y-40523D01*
X74200Y-40624D01*
X74165Y-40624D01*
X74009Y-40689D01*
X73889Y-40808D01*
X73825Y-40965D01*
X73824Y-41134D01*
X73889Y-41290D01*
X74008Y-41410D01*
X74165Y-41474D01*
X74334Y-41475D01*
X74490Y-41410D01*
X74610Y-41291D01*
X74674Y-41134D01*
X74675Y-41049D01*
X74712Y-41012D01*
X74712Y-41012D01*
X74777Y-40914D01*
X74799Y-40800D01*
X74800Y-40800D01*
X74800Y-40523D01*
X74904Y-40523D01*
X74995Y-40485D01*
X75066Y-40415D01*
X75104Y-40323D01*
X75104Y-40223D01*
X75104Y-54600D01*
X71425Y-54600D01*
X71425Y-48665D01*
X71360Y-48509D01*
X71241Y-48389D01*
X71084Y-48325D01*
X70999Y-48324D01*
X70150Y-47475D01*
X70150Y-43301D01*
X70210Y-43241D01*
X70274Y-43084D01*
X70275Y-42915D01*
X70227Y-42800D01*
X70548Y-42800D01*
X70558Y-42810D01*
X70715Y-42874D01*
X70884Y-42875D01*
X71040Y-42810D01*
X71160Y-42691D01*
X71224Y-42534D01*
X71225Y-42365D01*
X71160Y-42209D01*
X71041Y-42089D01*
X70884Y-42025D01*
X70715Y-42024D01*
X70559Y-42089D01*
X70448Y-42200D01*
X66744Y-42200D01*
X66840Y-42160D01*
X66960Y-42041D01*
X67024Y-41884D01*
X67025Y-41715D01*
X66960Y-41559D01*
X66841Y-41439D01*
X66684Y-41375D01*
X66515Y-41374D01*
X66359Y-41439D01*
X66239Y-41558D01*
X66175Y-41715D01*
X66174Y-41800D01*
X65775Y-42200D01*
X64392Y-42200D01*
X64247Y-42055D01*
X64054Y-41975D01*
X63846Y-41974D01*
X63653Y-42054D01*
X63505Y-42202D01*
X63425Y-42395D01*
X63424Y-42603D01*
X63504Y-42797D01*
X63652Y-42944D01*
X63785Y-43000D01*
X63653Y-43054D01*
X63505Y-43202D01*
X63425Y-43395D01*
X63424Y-43603D01*
X63504Y-43797D01*
X63652Y-43944D01*
X63845Y-44024D01*
X64053Y-44025D01*
X64247Y-43945D01*
X64394Y-43797D01*
X64424Y-43725D01*
X64424Y-43824D01*
X64462Y-43916D01*
X64533Y-43986D01*
X64625Y-44024D01*
X64724Y-44025D01*
X65274Y-44025D01*
X65366Y-43987D01*
X65436Y-43916D01*
X65474Y-43824D01*
X65475Y-43725D01*
X65475Y-43175D01*
X65464Y-43150D01*
X65950Y-43150D01*
X65950Y-43149D01*
X66064Y-43127D01*
X66064Y-43127D01*
X66162Y-43062D01*
X66424Y-42800D01*
X69472Y-42800D01*
X69425Y-42915D01*
X69424Y-43084D01*
X69489Y-43240D01*
X69550Y-43301D01*
X69550Y-47600D01*
X69572Y-47714D01*
X69637Y-47812D01*
X70575Y-48749D01*
X70574Y-48834D01*
X70639Y-48990D01*
X70758Y-49110D01*
X70915Y-49174D01*
X71084Y-49175D01*
X71240Y-49110D01*
X71360Y-48991D01*
X71424Y-48834D01*
X71425Y-48665D01*
X71425Y-54600D01*
X62100Y-54600D01*
X62100Y-38349D01*
X65006Y-38342D01*
X64989Y-38358D01*
X64925Y-38515D01*
X64924Y-38600D01*
X62787Y-40737D01*
X62722Y-40835D01*
X62700Y-40950D01*
X62700Y-47200D01*
X62722Y-47314D01*
X62787Y-47412D01*
X63788Y-48412D01*
X63775Y-48445D01*
X63774Y-48653D01*
X63854Y-48847D01*
X64002Y-48994D01*
X64195Y-49074D01*
X64403Y-49075D01*
X64597Y-48995D01*
X64744Y-48847D01*
X64774Y-48775D01*
X64774Y-48874D01*
X64812Y-48966D01*
X64883Y-49036D01*
X64975Y-49074D01*
X65074Y-49075D01*
X65624Y-49075D01*
X65716Y-49037D01*
X65786Y-48966D01*
X65824Y-48874D01*
X65825Y-48775D01*
X65825Y-48225D01*
X65787Y-48133D01*
X65716Y-48063D01*
X65624Y-48025D01*
X65525Y-48024D01*
X64975Y-48024D01*
X64883Y-48062D01*
X64813Y-48133D01*
X64775Y-48225D01*
X64774Y-48324D01*
X64774Y-48324D01*
X64745Y-48253D01*
X64597Y-48105D01*
X64464Y-48049D01*
X64597Y-47995D01*
X64744Y-47847D01*
X64747Y-47840D01*
X64814Y-47827D01*
X64814Y-47827D01*
X64912Y-47762D01*
X68599Y-44074D01*
X68684Y-44075D01*
X68840Y-44010D01*
X68960Y-43891D01*
X69024Y-43734D01*
X69025Y-43565D01*
X68960Y-43409D01*
X68841Y-43289D01*
X68684Y-43225D01*
X68515Y-43224D01*
X68359Y-43289D01*
X68239Y-43408D01*
X68175Y-43565D01*
X68174Y-43650D01*
X64659Y-47166D01*
X64597Y-47105D01*
X64404Y-47025D01*
X64196Y-47024D01*
X64003Y-47104D01*
X63855Y-47252D01*
X63775Y-47445D01*
X63774Y-47550D01*
X63300Y-47075D01*
X63300Y-41074D01*
X65349Y-39024D01*
X65434Y-39025D01*
X65590Y-38960D01*
X65710Y-38841D01*
X65774Y-38684D01*
X65775Y-38515D01*
X65710Y-38359D01*
X65692Y-38341D01*
X73997Y-38320D01*
X73933Y-38385D01*
X73895Y-38476D01*
X73895Y-38728D01*
X73958Y-38791D01*
X74450Y-38791D01*
X74450Y-38783D01*
X74550Y-38783D01*
X74550Y-38791D01*
X75042Y-38791D01*
X75104Y-38728D01*
X75104Y-38476D01*
X75066Y-38385D01*
X74999Y-38318D01*
X82350Y-38300D01*
X82350Y-54600D01*
X82350Y-54600D01*
G37*
G54D16*
X82350Y-54600D02*
X80573Y-54600D01*
X80573Y-42352D01*
X80573Y-40392D01*
X80476Y-40155D01*
X80295Y-39974D01*
X80058Y-39876D01*
X79802Y-39876D01*
X79565Y-39973D01*
X79384Y-40154D01*
X79286Y-40391D01*
X79286Y-40647D01*
X79383Y-40884D01*
X79564Y-41065D01*
X79801Y-41163D01*
X80057Y-41163D01*
X80294Y-41066D01*
X80475Y-40885D01*
X80573Y-40648D01*
X80573Y-40392D01*
X80573Y-42352D01*
X80476Y-42115D01*
X80295Y-41934D01*
X80058Y-41836D01*
X79802Y-41836D01*
X79565Y-41933D01*
X79384Y-42114D01*
X79286Y-42351D01*
X79286Y-42607D01*
X79383Y-42844D01*
X79564Y-43025D01*
X79801Y-43123D01*
X80057Y-43123D01*
X80294Y-43026D01*
X80475Y-42845D01*
X80573Y-42608D01*
X80573Y-42352D01*
X80573Y-54600D01*
X78633Y-54600D01*
X78633Y-42352D01*
X78613Y-42304D01*
X78613Y-40392D01*
X78516Y-40155D01*
X78335Y-39974D01*
X78098Y-39876D01*
X77842Y-39876D01*
X77605Y-39973D01*
X77424Y-40154D01*
X77326Y-40391D01*
X77326Y-40647D01*
X77423Y-40884D01*
X77604Y-41065D01*
X77841Y-41163D01*
X78097Y-41163D01*
X78334Y-41066D01*
X78515Y-40885D01*
X78613Y-40648D01*
X78613Y-40392D01*
X78613Y-42304D01*
X78536Y-42115D01*
X78355Y-41934D01*
X78118Y-41836D01*
X77862Y-41836D01*
X77625Y-41933D01*
X77444Y-42114D01*
X77346Y-42351D01*
X77346Y-42607D01*
X77443Y-42844D01*
X77624Y-43025D01*
X77861Y-43123D01*
X78117Y-43123D01*
X78354Y-43026D01*
X78535Y-42845D01*
X78633Y-42608D01*
X78633Y-42352D01*
X78633Y-54600D01*
X75104Y-54600D01*
X75104Y-40223D01*
X75104Y-39594D01*
X75066Y-39503D01*
X74996Y-39432D01*
X74917Y-39400D01*
X74996Y-39367D01*
X75066Y-39296D01*
X75104Y-39205D01*
X75104Y-38953D01*
X75042Y-38891D01*
X74550Y-38891D01*
X74550Y-38898D01*
X74450Y-38898D01*
X74450Y-38891D01*
X73958Y-38891D01*
X73895Y-38953D01*
X73895Y-39205D01*
X73933Y-39296D01*
X74003Y-39367D01*
X74082Y-39400D01*
X74004Y-39432D01*
X73933Y-39502D01*
X73895Y-39594D01*
X73895Y-39694D01*
X73895Y-40323D01*
X73933Y-40414D01*
X74003Y-40485D01*
X74095Y-40523D01*
X74195Y-40523D01*
X74200Y-40523D01*
X74200Y-40624D01*
X74165Y-40624D01*
X74009Y-40689D01*
X73889Y-40808D01*
X73825Y-40965D01*
X73824Y-41134D01*
X73889Y-41290D01*
X74008Y-41410D01*
X74165Y-41474D01*
X74334Y-41475D01*
X74490Y-41410D01*
X74610Y-41291D01*
X74674Y-41134D01*
X74675Y-41049D01*
X74712Y-41012D01*
X74712Y-41012D01*
X74777Y-40914D01*
X74799Y-40800D01*
X74800Y-40800D01*
X74800Y-40523D01*
X74904Y-40523D01*
X74995Y-40485D01*
X75066Y-40415D01*
X75104Y-40323D01*
X75104Y-40223D01*
X75104Y-54600D01*
X71425Y-54600D01*
X71425Y-48665D01*
X71360Y-48509D01*
X71241Y-48389D01*
X71084Y-48325D01*
X70999Y-48324D01*
X70150Y-47475D01*
X70150Y-43301D01*
X70210Y-43241D01*
X70274Y-43084D01*
X70275Y-42915D01*
X70227Y-42800D01*
X70548Y-42800D01*
X70558Y-42810D01*
X70715Y-42874D01*
X70884Y-42875D01*
X71040Y-42810D01*
X71160Y-42691D01*
X71224Y-42534D01*
X71225Y-42365D01*
X71160Y-42209D01*
X71041Y-42089D01*
X70884Y-42025D01*
X70715Y-42024D01*
X70559Y-42089D01*
X70448Y-42200D01*
X66744Y-42200D01*
X66840Y-42160D01*
X66960Y-42041D01*
X67024Y-41884D01*
X67025Y-41715D01*
X66960Y-41559D01*
X66841Y-41439D01*
X66684Y-41375D01*
X66515Y-41374D01*
X66359Y-41439D01*
X66239Y-41558D01*
X66175Y-41715D01*
X66174Y-41800D01*
X65775Y-42200D01*
X64392Y-42200D01*
X64247Y-42055D01*
X64054Y-41975D01*
X63846Y-41974D01*
X63653Y-42054D01*
X63505Y-42202D01*
X63425Y-42395D01*
X63424Y-42603D01*
X63504Y-42797D01*
X63652Y-42944D01*
X63785Y-43000D01*
X63653Y-43054D01*
X63505Y-43202D01*
X63425Y-43395D01*
X63424Y-43603D01*
X63504Y-43797D01*
X63652Y-43944D01*
X63845Y-44024D01*
X64053Y-44025D01*
X64247Y-43945D01*
X64394Y-43797D01*
X64424Y-43725D01*
X64424Y-43824D01*
X64462Y-43916D01*
X64533Y-43986D01*
X64625Y-44024D01*
X64724Y-44025D01*
X65274Y-44025D01*
X65366Y-43987D01*
X65436Y-43916D01*
X65474Y-43824D01*
X65475Y-43725D01*
X65475Y-43175D01*
X65464Y-43150D01*
X65950Y-43150D01*
X65950Y-43149D01*
X66064Y-43127D01*
X66064Y-43127D01*
X66162Y-43062D01*
X66424Y-42800D01*
X69472Y-42800D01*
X69425Y-42915D01*
X69424Y-43084D01*
X69489Y-43240D01*
X69550Y-43301D01*
X69550Y-47600D01*
X69572Y-47714D01*
X69637Y-47812D01*
X70575Y-48749D01*
X70574Y-48834D01*
X70639Y-48990D01*
X70758Y-49110D01*
X70915Y-49174D01*
X71084Y-49175D01*
X71240Y-49110D01*
X71360Y-48991D01*
X71424Y-48834D01*
X71425Y-48665D01*
X71425Y-54600D01*
X62100Y-54600D01*
X62100Y-38349D01*
X65006Y-38342D01*
X64989Y-38358D01*
X64925Y-38515D01*
X64924Y-38600D01*
X62787Y-40737D01*
X62722Y-40835D01*
X62700Y-40950D01*
X62700Y-47200D01*
X62722Y-47314D01*
X62787Y-47412D01*
X63788Y-48412D01*
X63775Y-48445D01*
X63774Y-48653D01*
X63854Y-48847D01*
X64002Y-48994D01*
X64195Y-49074D01*
X64403Y-49075D01*
X64597Y-48995D01*
X64744Y-48847D01*
X64774Y-48775D01*
X64774Y-48874D01*
X64812Y-48966D01*
X64883Y-49036D01*
X64975Y-49074D01*
X65074Y-49075D01*
X65624Y-49075D01*
X65716Y-49037D01*
X65786Y-48966D01*
X65824Y-48874D01*
X65825Y-48775D01*
X65825Y-48225D01*
X65787Y-48133D01*
X65716Y-48063D01*
X65624Y-48025D01*
X65525Y-48024D01*
X64975Y-48024D01*
X64883Y-48062D01*
X64813Y-48133D01*
X64775Y-48225D01*
X64774Y-48324D01*
X64774Y-48324D01*
X64745Y-48253D01*
X64597Y-48105D01*
X64464Y-48049D01*
X64597Y-47995D01*
X64744Y-47847D01*
X64747Y-47840D01*
X64814Y-47827D01*
X64814Y-47827D01*
X64912Y-47762D01*
X68599Y-44074D01*
X68684Y-44075D01*
X68840Y-44010D01*
X68960Y-43891D01*
X69024Y-43734D01*
X69025Y-43565D01*
X68960Y-43409D01*
X68841Y-43289D01*
X68684Y-43225D01*
X68515Y-43224D01*
X68359Y-43289D01*
X68239Y-43408D01*
X68175Y-43565D01*
X68174Y-43650D01*
X64659Y-47166D01*
X64597Y-47105D01*
X64404Y-47025D01*
X64196Y-47024D01*
X64003Y-47104D01*
X63855Y-47252D01*
X63775Y-47445D01*
X63774Y-47550D01*
X63300Y-47075D01*
X63300Y-41074D01*
X65349Y-39024D01*
X65434Y-39025D01*
X65590Y-38960D01*
X65710Y-38841D01*
X65774Y-38684D01*
X65775Y-38515D01*
X65710Y-38359D01*
X65692Y-38341D01*
X73997Y-38320D01*
X73933Y-38385D01*
X73895Y-38476D01*
X73895Y-38728D01*
X73958Y-38791D01*
X74450Y-38791D01*
X74450Y-38783D01*
X74550Y-38783D01*
X74550Y-38791D01*
X75042Y-38791D01*
X75104Y-38728D01*
X75104Y-38476D01*
X75066Y-38385D01*
X74999Y-38318D01*
X82350Y-38300D01*
X82350Y-54600D01*
M02*
