G04 (created by PCBNEW (2013-07-07 BZR 4022)-stable) date 1/28/2014 1:23:19 PM*
%MOIN*%
G04 Gerber Fmt 3.4, Leading zero omitted, Abs format*
%FSLAX34Y34*%
G01*
G70*
G90*
G04 APERTURE LIST*
%ADD10C,0.00590551*%
%ADD11R,0.055X0.055*%
%ADD12C,0.055*%
%ADD13R,0.03X0.06*%
%ADD14R,0.06X0.08*%
%ADD15R,0.055X0.035*%
%ADD16R,0.035X0.055*%
%ADD17R,0.025X0.045*%
%ADD18R,0.0216535X0.0590551*%
%ADD19R,0.0149606X0.0409449*%
%ADD20R,0.0165354X0.023622*%
%ADD21R,0.0944882X0.0905512*%
%ADD22R,0.011811X0.0393701*%
%ADD23C,0.0787402*%
G04 APERTURE END LIST*
G54D10*
G54D11*
X64950Y-43500D03*
G54D12*
X63950Y-43500D03*
X63950Y-42500D03*
G54D11*
X65300Y-48550D03*
G54D12*
X64300Y-48550D03*
X64300Y-47550D03*
G54D13*
X69650Y-47300D03*
X70150Y-47300D03*
X70650Y-47300D03*
X71150Y-47300D03*
X71650Y-47300D03*
X72150Y-47300D03*
X72650Y-47300D03*
X73150Y-47300D03*
X73650Y-47300D03*
X74150Y-47300D03*
X74650Y-47300D03*
X75200Y-47300D03*
X69650Y-44300D03*
X70150Y-44300D03*
X70650Y-44300D03*
X71150Y-44300D03*
X71650Y-44300D03*
X72150Y-44300D03*
X72650Y-44300D03*
X73150Y-44300D03*
X73650Y-44300D03*
X74150Y-44300D03*
X74650Y-44300D03*
X75150Y-44300D03*
G54D14*
X75150Y-52400D03*
X73850Y-52400D03*
X75150Y-49650D03*
X73850Y-49650D03*
G54D15*
X79600Y-50425D03*
X79600Y-49675D03*
G54D16*
X70975Y-52400D03*
X70225Y-52400D03*
X73325Y-41900D03*
X74075Y-41900D03*
G54D17*
X78250Y-52400D03*
X78850Y-52400D03*
X67350Y-46450D03*
X67950Y-46450D03*
G54D18*
X68850Y-41750D03*
X69350Y-41750D03*
X69850Y-41750D03*
X70350Y-41750D03*
X70850Y-41750D03*
X71350Y-41750D03*
X71850Y-41750D03*
X71850Y-39620D03*
X71350Y-39620D03*
X70850Y-39620D03*
X70350Y-39620D03*
X69850Y-39620D03*
X69350Y-39620D03*
X68850Y-39620D03*
G54D19*
X79510Y-47580D03*
X79770Y-47580D03*
X80030Y-47580D03*
X80290Y-47580D03*
X80290Y-45920D03*
X80030Y-45920D03*
X79770Y-45920D03*
X79510Y-45920D03*
G54D20*
X77860Y-45630D03*
X77600Y-45630D03*
X77340Y-45630D03*
X77350Y-46370D03*
X77610Y-46370D03*
X77870Y-46370D03*
G54D21*
X68400Y-50100D03*
G54D22*
X67630Y-51180D03*
X67890Y-51180D03*
X68150Y-51180D03*
X68410Y-51180D03*
X68670Y-51180D03*
X68930Y-51180D03*
X69190Y-51180D03*
X69200Y-49080D03*
X68940Y-49080D03*
X68680Y-49080D03*
X68420Y-49080D03*
X68160Y-49080D03*
X67900Y-49080D03*
X67640Y-49080D03*
G54D23*
X79930Y-42480D03*
X77990Y-42480D03*
X79930Y-40520D03*
X77970Y-40520D03*
M02*
