G04 (created by PCBNEW (2013-07-07 BZR 4022)-stable) date 1/28/2014 1:23:19 PM*
%MOIN*%
G04 Gerber Fmt 3.4, Leading zero omitted, Abs format*
%FSLAX34Y34*%
G01*
G70*
G90*
G04 APERTURE LIST*
%ADD10C,0.00590551*%
%ADD11C,0.0001*%
%ADD12C,0.012*%
%ADD13C,0.0026*%
%ADD14C,0.004*%
%ADD15C,0.008*%
%ADD16C,0.0035*%
G04 APERTURE END LIST*
G54D10*
G54D11*
G36*
X81450Y-47000D02*
X77967Y-47017D01*
X77391Y-47020D01*
X76880Y-47022D01*
X76429Y-47025D01*
X76036Y-47029D01*
X75697Y-47032D01*
X75411Y-47035D01*
X75173Y-47039D01*
X74981Y-47043D01*
X74831Y-47047D01*
X74722Y-47052D01*
X74649Y-47057D01*
X74611Y-47063D01*
X74603Y-47069D01*
X74611Y-47073D01*
X74703Y-47094D01*
X74772Y-47098D01*
X74782Y-47096D01*
X74797Y-47096D01*
X74823Y-47106D01*
X74864Y-47129D01*
X74924Y-47166D01*
X75007Y-47221D01*
X75116Y-47297D01*
X75256Y-47395D01*
X75428Y-47519D01*
X75639Y-47671D01*
X75890Y-47854D01*
X76187Y-48070D01*
X76532Y-48322D01*
X76676Y-48428D01*
X76921Y-48606D01*
X77119Y-48745D01*
X77273Y-48850D01*
X77388Y-48922D01*
X77470Y-48965D01*
X77523Y-48983D01*
X77531Y-48984D01*
X77611Y-49002D01*
X77720Y-49061D01*
X77861Y-49161D01*
X78038Y-49307D01*
X78234Y-49480D01*
X78349Y-49584D01*
X78429Y-49650D01*
X78485Y-49684D01*
X78531Y-49694D01*
X78579Y-49686D01*
X78608Y-49677D01*
X78755Y-49653D01*
X78893Y-49680D01*
X79034Y-49760D01*
X79157Y-49867D01*
X79342Y-50046D01*
X79319Y-50220D01*
X79296Y-50342D01*
X79263Y-50451D01*
X79247Y-50490D01*
X79217Y-50564D01*
X79213Y-50612D01*
X79214Y-50613D01*
X79244Y-50640D01*
X79320Y-50701D01*
X79435Y-50791D01*
X79581Y-50904D01*
X79750Y-51034D01*
X79896Y-51145D01*
X80080Y-51287D01*
X80247Y-51419D01*
X80388Y-51534D01*
X80496Y-51628D01*
X80564Y-51693D01*
X80584Y-51719D01*
X80594Y-51810D01*
X80588Y-51861D01*
X80588Y-51899D01*
X80613Y-51942D01*
X80670Y-51998D01*
X80769Y-52076D01*
X80870Y-52150D01*
X81068Y-52303D01*
X81228Y-52449D01*
X81345Y-52581D01*
X81409Y-52691D01*
X81410Y-52692D01*
X81415Y-52740D01*
X81402Y-52750D01*
X81336Y-52734D01*
X81267Y-52706D01*
X81267Y-52587D01*
X81245Y-52549D01*
X81178Y-52482D01*
X81062Y-52383D01*
X80896Y-52252D01*
X80791Y-52171D01*
X80638Y-52064D01*
X80528Y-52007D01*
X80500Y-52004D01*
X80500Y-51800D01*
X80477Y-51756D01*
X80458Y-51751D01*
X80385Y-51776D01*
X80330Y-51824D01*
X80330Y-51603D01*
X80329Y-51602D01*
X80300Y-51579D01*
X80224Y-51522D01*
X80108Y-51437D01*
X79961Y-51328D01*
X79789Y-51201D01*
X79616Y-51073D01*
X79404Y-50918D01*
X79239Y-50798D01*
X79161Y-50742D01*
X79161Y-50174D01*
X79133Y-50137D01*
X79083Y-50111D01*
X78981Y-50095D01*
X78981Y-49904D01*
X78952Y-49860D01*
X78886Y-49814D01*
X78791Y-49776D01*
X78743Y-49764D01*
X78595Y-49764D01*
X78436Y-49825D01*
X78297Y-49924D01*
X78297Y-49748D01*
X78288Y-49718D01*
X78247Y-49671D01*
X78168Y-49600D01*
X78044Y-49497D01*
X77996Y-49458D01*
X77847Y-49340D01*
X77738Y-49262D01*
X77656Y-49219D01*
X77590Y-49208D01*
X77528Y-49227D01*
X77458Y-49271D01*
X77428Y-49293D01*
X77357Y-49370D01*
X77297Y-49468D01*
X77297Y-49005D01*
X77263Y-48979D01*
X77184Y-48921D01*
X77067Y-48837D01*
X76921Y-48731D01*
X76754Y-48611D01*
X76575Y-48482D01*
X76392Y-48350D01*
X76213Y-48222D01*
X76047Y-48102D01*
X75902Y-47999D01*
X75786Y-47916D01*
X75708Y-47861D01*
X75700Y-47855D01*
X75585Y-47773D01*
X75437Y-47667D01*
X75275Y-47549D01*
X75133Y-47444D01*
X74783Y-47185D01*
X74692Y-47291D01*
X74625Y-47378D01*
X74607Y-47438D01*
X74639Y-47490D01*
X74693Y-47533D01*
X74740Y-47569D01*
X74831Y-47642D01*
X74962Y-47746D01*
X75123Y-47876D01*
X75309Y-48027D01*
X75514Y-48192D01*
X75666Y-48316D01*
X75961Y-48555D01*
X76208Y-48756D01*
X76412Y-48921D01*
X76577Y-49054D01*
X76707Y-49159D01*
X76807Y-49239D01*
X76880Y-49297D01*
X76932Y-49337D01*
X76967Y-49362D01*
X76988Y-49376D01*
X77000Y-49382D01*
X77007Y-49383D01*
X77034Y-49356D01*
X77074Y-49289D01*
X77086Y-49266D01*
X77146Y-49168D01*
X77219Y-49088D01*
X77226Y-49082D01*
X77280Y-49034D01*
X77297Y-49005D01*
X77297Y-49468D01*
X77287Y-49485D01*
X77231Y-49612D01*
X77201Y-49723D01*
X77200Y-49747D01*
X77225Y-49809D01*
X77291Y-49883D01*
X77320Y-49907D01*
X77409Y-49978D01*
X77523Y-50070D01*
X77629Y-50158D01*
X77720Y-50235D01*
X77789Y-50291D01*
X77822Y-50316D01*
X77823Y-50317D01*
X77839Y-50289D01*
X77873Y-50220D01*
X77893Y-50175D01*
X77967Y-50056D01*
X78078Y-49929D01*
X78204Y-49817D01*
X78280Y-49767D01*
X78297Y-49748D01*
X78297Y-49924D01*
X78264Y-49948D01*
X78219Y-49987D01*
X78063Y-50158D01*
X77971Y-50331D01*
X77937Y-50516D01*
X77940Y-50612D01*
X77963Y-50720D01*
X78005Y-50829D01*
X78056Y-50921D01*
X78108Y-50976D01*
X78131Y-50984D01*
X78148Y-50953D01*
X78166Y-50876D01*
X78176Y-50805D01*
X78223Y-50599D01*
X78316Y-50394D01*
X78439Y-50217D01*
X78469Y-50186D01*
X78578Y-50095D01*
X78703Y-50017D01*
X78821Y-49965D01*
X78897Y-49950D01*
X78965Y-49937D01*
X78981Y-49904D01*
X78981Y-50095D01*
X78974Y-50094D01*
X78842Y-50126D01*
X78704Y-50198D01*
X78596Y-50287D01*
X78498Y-50407D01*
X78410Y-50557D01*
X78337Y-50717D01*
X78287Y-50874D01*
X78267Y-51009D01*
X78278Y-51099D01*
X78324Y-51137D01*
X78405Y-51149D01*
X78495Y-51133D01*
X78546Y-51107D01*
X78587Y-51069D01*
X78572Y-51036D01*
X78553Y-51019D01*
X78509Y-50967D01*
X78500Y-50938D01*
X78522Y-50816D01*
X78578Y-50677D01*
X78655Y-50553D01*
X78674Y-50531D01*
X78748Y-50456D01*
X78814Y-50425D01*
X78895Y-50423D01*
X78978Y-50422D01*
X79036Y-50389D01*
X79090Y-50320D01*
X79146Y-50229D01*
X79161Y-50174D01*
X79161Y-50742D01*
X79114Y-50709D01*
X79022Y-50649D01*
X78957Y-50612D01*
X78912Y-50594D01*
X78880Y-50592D01*
X78854Y-50601D01*
X78840Y-50610D01*
X78759Y-50689D01*
X78695Y-50795D01*
X78667Y-50898D01*
X78667Y-50907D01*
X78693Y-50958D01*
X78760Y-51027D01*
X78826Y-51078D01*
X78903Y-51133D01*
X79023Y-51218D01*
X79174Y-51325D01*
X79343Y-51445D01*
X79517Y-51569D01*
X79681Y-51685D01*
X79828Y-51788D01*
X79947Y-51869D01*
X80030Y-51925D01*
X80069Y-51949D01*
X80071Y-51949D01*
X80096Y-51922D01*
X80131Y-51856D01*
X80134Y-51849D01*
X80191Y-51754D01*
X80259Y-51682D01*
X80313Y-51633D01*
X80330Y-51603D01*
X80330Y-51824D01*
X80314Y-51839D01*
X80255Y-51925D01*
X80215Y-52016D01*
X80202Y-52097D01*
X80226Y-52153D01*
X80242Y-52161D01*
X80282Y-52179D01*
X80287Y-52181D01*
X80284Y-52155D01*
X80276Y-52108D01*
X80286Y-52031D01*
X80330Y-51947D01*
X80391Y-51878D01*
X80452Y-51850D01*
X80494Y-51823D01*
X80500Y-51800D01*
X80500Y-52004D01*
X80460Y-52000D01*
X80435Y-52044D01*
X80435Y-52057D01*
X80463Y-52104D01*
X80535Y-52175D01*
X80641Y-52262D01*
X80767Y-52354D01*
X80902Y-52442D01*
X81008Y-52503D01*
X81132Y-52568D01*
X81210Y-52604D01*
X81251Y-52613D01*
X81266Y-52598D01*
X81267Y-52587D01*
X81267Y-52706D01*
X81228Y-52691D01*
X81092Y-52628D01*
X80945Y-52554D01*
X80800Y-52474D01*
X80674Y-52397D01*
X80638Y-52373D01*
X80509Y-52288D01*
X80416Y-52237D01*
X80342Y-52215D01*
X80269Y-52212D01*
X80267Y-52212D01*
X80175Y-52207D01*
X80079Y-52172D01*
X79962Y-52102D01*
X79859Y-52034D01*
X79773Y-51976D01*
X79690Y-51919D01*
X79601Y-51855D01*
X79492Y-51776D01*
X79352Y-51674D01*
X79183Y-51549D01*
X79034Y-51440D01*
X78901Y-51343D01*
X78796Y-51267D01*
X78728Y-51219D01*
X78709Y-51206D01*
X78654Y-51203D01*
X78575Y-51229D01*
X78569Y-51232D01*
X78472Y-51264D01*
X78352Y-51282D01*
X78315Y-51284D01*
X78238Y-51280D01*
X78177Y-51265D01*
X78115Y-51227D01*
X78037Y-51159D01*
X77947Y-51070D01*
X77843Y-50964D01*
X77780Y-50887D01*
X77747Y-50825D01*
X77734Y-50763D01*
X77733Y-50724D01*
X77731Y-50672D01*
X77719Y-50626D01*
X77690Y-50575D01*
X77638Y-50511D01*
X77600Y-50471D01*
X77600Y-50200D01*
X77583Y-50184D01*
X77567Y-50200D01*
X77583Y-50217D01*
X77600Y-50200D01*
X77600Y-50471D01*
X77556Y-50425D01*
X77436Y-50308D01*
X77333Y-50210D01*
X77155Y-50035D01*
X77028Y-49900D01*
X76955Y-49807D01*
X76933Y-49757D01*
X76917Y-49725D01*
X76867Y-49665D01*
X76780Y-49575D01*
X76655Y-49454D01*
X76488Y-49298D01*
X76279Y-49106D01*
X76023Y-48874D01*
X75719Y-48602D01*
X75717Y-48600D01*
X75428Y-48342D01*
X75187Y-48125D01*
X74988Y-47944D01*
X74829Y-47797D01*
X74706Y-47679D01*
X74616Y-47588D01*
X74554Y-47521D01*
X74516Y-47472D01*
X74501Y-47440D01*
X74500Y-47432D01*
X74491Y-47378D01*
X74453Y-47353D01*
X74375Y-47347D01*
X74198Y-47348D01*
X74070Y-47364D01*
X73972Y-47398D01*
X73963Y-47402D01*
X73892Y-47452D01*
X73844Y-47524D01*
X73817Y-47628D01*
X73807Y-47774D01*
X73812Y-47973D01*
X73815Y-48027D01*
X73825Y-48248D01*
X73821Y-48416D01*
X73798Y-48546D01*
X73754Y-48651D01*
X73685Y-48743D01*
X73600Y-48827D01*
X73489Y-48914D01*
X73346Y-49011D01*
X73197Y-49099D01*
X73171Y-49112D01*
X73043Y-49177D01*
X72962Y-49212D01*
X72915Y-49221D01*
X72892Y-49207D01*
X72886Y-49195D01*
X72874Y-49167D01*
X72873Y-49146D01*
X72892Y-49125D01*
X72943Y-49096D01*
X73035Y-49050D01*
X73133Y-49002D01*
X73343Y-48891D01*
X73498Y-48788D01*
X73610Y-48686D01*
X73671Y-48605D01*
X73699Y-48554D01*
X73716Y-48499D01*
X73725Y-48426D01*
X73725Y-48320D01*
X73719Y-48166D01*
X73715Y-48098D01*
X73707Y-47915D01*
X73707Y-47782D01*
X73715Y-47686D01*
X73732Y-47611D01*
X73749Y-47565D01*
X73845Y-47393D01*
X73967Y-47282D01*
X74118Y-47231D01*
X74303Y-47237D01*
X74366Y-47250D01*
X74477Y-47272D01*
X74544Y-47270D01*
X74584Y-47250D01*
X74625Y-47206D01*
X74618Y-47175D01*
X74558Y-47147D01*
X74464Y-47123D01*
X74220Y-47087D01*
X74014Y-47101D01*
X73893Y-47149D01*
X73893Y-47042D01*
X73861Y-47032D01*
X73781Y-47025D01*
X73648Y-47020D01*
X73457Y-47018D01*
X73375Y-47018D01*
X72800Y-47017D01*
X72800Y-47952D01*
X72800Y-48888D01*
X72875Y-48866D01*
X72943Y-48841D01*
X73047Y-48796D01*
X73155Y-48745D01*
X73272Y-48687D01*
X73357Y-48635D01*
X73416Y-48578D01*
X73455Y-48504D01*
X73478Y-48402D01*
X73491Y-48259D01*
X73499Y-48065D01*
X73502Y-48005D01*
X73510Y-47800D01*
X73520Y-47649D01*
X73534Y-47540D01*
X73552Y-47458D01*
X73577Y-47392D01*
X73590Y-47367D01*
X73716Y-47188D01*
X73876Y-47060D01*
X73883Y-47056D01*
X73893Y-47042D01*
X73893Y-47149D01*
X73847Y-47168D01*
X73718Y-47288D01*
X73624Y-47462D01*
X73565Y-47692D01*
X73541Y-47978D01*
X73541Y-48142D01*
X73544Y-48304D01*
X73543Y-48413D01*
X73535Y-48486D01*
X73517Y-48536D01*
X73486Y-48578D01*
X73455Y-48611D01*
X73380Y-48671D01*
X73265Y-48743D01*
X73130Y-48815D01*
X73080Y-48839D01*
X72801Y-48967D01*
X72792Y-50867D01*
X72790Y-51170D01*
X72789Y-51417D01*
X72787Y-51608D01*
X72786Y-51742D01*
X72785Y-51819D01*
X72784Y-51836D01*
X72783Y-51794D01*
X72782Y-51690D01*
X72780Y-51526D01*
X72779Y-51299D01*
X72778Y-51008D01*
X72777Y-50654D01*
X72776Y-50234D01*
X72775Y-49875D01*
X72767Y-46984D01*
X77108Y-46992D01*
X81450Y-47000D01*
X81450Y-47000D01*
X81450Y-47000D01*
G37*
G54D12*
X63950Y-42000D02*
X65450Y-43500D01*
X65450Y-43500D02*
X65450Y-44000D01*
X65450Y-44000D02*
X64950Y-44500D01*
X64950Y-44500D02*
X63950Y-44500D01*
X63950Y-44500D02*
X62950Y-43500D01*
X62950Y-43500D02*
X62950Y-42500D01*
X62950Y-42500D02*
X63450Y-42000D01*
X63450Y-42000D02*
X63950Y-42000D01*
X64300Y-47050D02*
X65800Y-48550D01*
X65800Y-48550D02*
X65800Y-49050D01*
X65800Y-49050D02*
X65300Y-49550D01*
X65300Y-49550D02*
X64300Y-49550D01*
X64300Y-49550D02*
X63300Y-48550D01*
X63300Y-48550D02*
X63300Y-47550D01*
X63300Y-47550D02*
X63800Y-47050D01*
X63800Y-47050D02*
X64300Y-47050D01*
G54D13*
X74461Y-39439D02*
X74461Y-39361D01*
X74461Y-39361D02*
X74539Y-39361D01*
X74539Y-39439D02*
X74539Y-39361D01*
X74461Y-39439D02*
X74539Y-39439D01*
X74225Y-39223D02*
X74225Y-39086D01*
X74225Y-39086D02*
X74323Y-39086D01*
X74323Y-39223D02*
X74323Y-39086D01*
X74225Y-39223D02*
X74323Y-39223D01*
X74225Y-39086D02*
X74225Y-39046D01*
X74225Y-39046D02*
X74696Y-39046D01*
X74696Y-39086D02*
X74696Y-39046D01*
X74225Y-39086D02*
X74696Y-39086D01*
X74716Y-39086D02*
X74716Y-39046D01*
X74716Y-39046D02*
X74775Y-39046D01*
X74775Y-39086D02*
X74775Y-39046D01*
X74716Y-39086D02*
X74775Y-39086D01*
X74225Y-39754D02*
X74225Y-39714D01*
X74225Y-39714D02*
X74696Y-39714D01*
X74696Y-39754D02*
X74696Y-39714D01*
X74225Y-39754D02*
X74696Y-39754D01*
X74716Y-39754D02*
X74716Y-39714D01*
X74716Y-39714D02*
X74775Y-39714D01*
X74775Y-39754D02*
X74775Y-39714D01*
X74716Y-39754D02*
X74775Y-39754D01*
X74225Y-39223D02*
X74225Y-39164D01*
X74225Y-39164D02*
X74323Y-39164D01*
X74323Y-39223D02*
X74323Y-39164D01*
X74225Y-39223D02*
X74323Y-39223D01*
G54D14*
X74205Y-38790D02*
X74205Y-40010D01*
X74205Y-40010D02*
X74795Y-40010D01*
X74795Y-40010D02*
X74795Y-38790D01*
X74795Y-38790D02*
X74205Y-38790D01*
X74303Y-39615D02*
G75*
G02X74304Y-39183I196J215D01*
G74*
G01*
X74696Y-39615D02*
G75*
G02X74304Y-39616I-196J215D01*
G74*
G01*
X74696Y-39184D02*
G75*
G02X74695Y-39616I-196J-215D01*
G74*
G01*
X74303Y-39184D02*
G75*
G02X74695Y-39183I196J-215D01*
G74*
G01*
G54D10*
X78090Y-43680D02*
X79830Y-43680D01*
X81312Y-41500D02*
G75*
G03X81312Y-41500I-2362J0D01*
G74*
G01*
G54D15*
X63988Y-41700D02*
X64026Y-41680D01*
X64064Y-41642D01*
X64121Y-41585D01*
X64159Y-41566D01*
X64197Y-41566D01*
X64178Y-41661D02*
X64216Y-41642D01*
X64254Y-41604D01*
X64273Y-41528D01*
X64273Y-41395D01*
X64254Y-41319D01*
X64216Y-41280D01*
X64178Y-41261D01*
X64102Y-41261D01*
X64064Y-41280D01*
X64026Y-41319D01*
X64007Y-41395D01*
X64007Y-41528D01*
X64026Y-41604D01*
X64064Y-41642D01*
X64102Y-41661D01*
X64178Y-41661D01*
X63626Y-41661D02*
X63854Y-41661D01*
X63740Y-41661D02*
X63740Y-41261D01*
X63778Y-41319D01*
X63816Y-41357D01*
X63854Y-41376D01*
X65197Y-45161D02*
X65197Y-44761D01*
X65045Y-44761D01*
X65007Y-44780D01*
X64988Y-44800D01*
X64969Y-44838D01*
X64969Y-44895D01*
X64988Y-44933D01*
X65007Y-44952D01*
X65045Y-44971D01*
X65197Y-44971D01*
X64797Y-45161D02*
X64797Y-44761D01*
X64569Y-45161D01*
X64569Y-44761D01*
X64397Y-44800D02*
X64378Y-44780D01*
X64340Y-44761D01*
X64245Y-44761D01*
X64207Y-44780D01*
X64188Y-44800D01*
X64169Y-44838D01*
X64169Y-44876D01*
X64188Y-44933D01*
X64416Y-45161D01*
X64169Y-45161D01*
X64016Y-44800D02*
X63997Y-44780D01*
X63959Y-44761D01*
X63864Y-44761D01*
X63826Y-44780D01*
X63807Y-44800D01*
X63788Y-44838D01*
X63788Y-44876D01*
X63807Y-44933D01*
X64035Y-45161D01*
X63788Y-45161D01*
X63635Y-44800D02*
X63616Y-44780D01*
X63578Y-44761D01*
X63483Y-44761D01*
X63445Y-44780D01*
X63426Y-44800D01*
X63407Y-44838D01*
X63407Y-44876D01*
X63426Y-44933D01*
X63654Y-45161D01*
X63407Y-45161D01*
X63254Y-44800D02*
X63235Y-44780D01*
X63197Y-44761D01*
X63102Y-44761D01*
X63064Y-44780D01*
X63045Y-44800D01*
X63026Y-44838D01*
X63026Y-44876D01*
X63045Y-44933D01*
X63273Y-45161D01*
X63026Y-45161D01*
X62873Y-45047D02*
X62683Y-45047D01*
X62911Y-45161D02*
X62778Y-44761D01*
X62645Y-45161D01*
X64338Y-46750D02*
X64376Y-46730D01*
X64414Y-46692D01*
X64471Y-46635D01*
X64509Y-46616D01*
X64547Y-46616D01*
X64528Y-46711D02*
X64566Y-46692D01*
X64604Y-46654D01*
X64623Y-46578D01*
X64623Y-46445D01*
X64604Y-46369D01*
X64566Y-46330D01*
X64528Y-46311D01*
X64452Y-46311D01*
X64414Y-46330D01*
X64376Y-46369D01*
X64357Y-46445D01*
X64357Y-46578D01*
X64376Y-46654D01*
X64414Y-46692D01*
X64452Y-46711D01*
X64528Y-46711D01*
X64204Y-46350D02*
X64185Y-46330D01*
X64147Y-46311D01*
X64052Y-46311D01*
X64014Y-46330D01*
X63995Y-46350D01*
X63976Y-46388D01*
X63976Y-46426D01*
X63995Y-46483D01*
X64223Y-46711D01*
X63976Y-46711D01*
X65547Y-50211D02*
X65547Y-49811D01*
X65395Y-49811D01*
X65357Y-49830D01*
X65338Y-49850D01*
X65319Y-49888D01*
X65319Y-49945D01*
X65338Y-49983D01*
X65357Y-50002D01*
X65395Y-50021D01*
X65547Y-50021D01*
X65147Y-50211D02*
X65147Y-49811D01*
X64919Y-50211D01*
X64919Y-49811D01*
X64747Y-49850D02*
X64728Y-49830D01*
X64690Y-49811D01*
X64595Y-49811D01*
X64557Y-49830D01*
X64538Y-49850D01*
X64519Y-49888D01*
X64519Y-49926D01*
X64538Y-49983D01*
X64766Y-50211D01*
X64519Y-50211D01*
X64366Y-49850D02*
X64347Y-49830D01*
X64309Y-49811D01*
X64214Y-49811D01*
X64176Y-49830D01*
X64157Y-49850D01*
X64138Y-49888D01*
X64138Y-49926D01*
X64157Y-49983D01*
X64385Y-50211D01*
X64138Y-50211D01*
X63985Y-49850D02*
X63966Y-49830D01*
X63928Y-49811D01*
X63833Y-49811D01*
X63795Y-49830D01*
X63776Y-49850D01*
X63757Y-49888D01*
X63757Y-49926D01*
X63776Y-49983D01*
X64004Y-50211D01*
X63757Y-50211D01*
X63604Y-49850D02*
X63585Y-49830D01*
X63547Y-49811D01*
X63452Y-49811D01*
X63414Y-49830D01*
X63395Y-49850D01*
X63376Y-49888D01*
X63376Y-49926D01*
X63395Y-49983D01*
X63623Y-50211D01*
X63376Y-50211D01*
X63223Y-50097D02*
X63033Y-50097D01*
X63261Y-50211D02*
X63128Y-49811D01*
X62995Y-50211D01*
G54D16*
X75221Y-39078D02*
X74921Y-39078D01*
X74921Y-39150D01*
X74935Y-39192D01*
X74964Y-39221D01*
X74992Y-39235D01*
X75050Y-39250D01*
X75092Y-39250D01*
X75150Y-39235D01*
X75178Y-39221D01*
X75207Y-39192D01*
X75221Y-39150D01*
X75221Y-39078D01*
X74950Y-39364D02*
X74935Y-39378D01*
X74921Y-39407D01*
X74921Y-39478D01*
X74935Y-39507D01*
X74950Y-39521D01*
X74978Y-39535D01*
X75007Y-39535D01*
X75050Y-39521D01*
X75221Y-39350D01*
X75221Y-39535D01*
X74021Y-39207D02*
X74021Y-39064D01*
X73721Y-39064D01*
X73864Y-39307D02*
X73864Y-39407D01*
X74021Y-39450D02*
X74021Y-39307D01*
X73721Y-39307D01*
X73721Y-39450D01*
X74021Y-39578D02*
X73721Y-39578D01*
X73721Y-39650D01*
X73735Y-39692D01*
X73764Y-39721D01*
X73792Y-39735D01*
X73850Y-39750D01*
X73892Y-39750D01*
X73950Y-39735D01*
X73978Y-39721D01*
X74007Y-39692D01*
X74021Y-39650D01*
X74021Y-39578D01*
G54D10*
X79734Y-41580D02*
X79678Y-41599D01*
X79584Y-41599D01*
X79547Y-41580D01*
X79528Y-41561D01*
X79509Y-41524D01*
X79509Y-41486D01*
X79528Y-41449D01*
X79547Y-41430D01*
X79584Y-41411D01*
X79659Y-41393D01*
X79697Y-41374D01*
X79716Y-41355D01*
X79734Y-41318D01*
X79734Y-41280D01*
X79716Y-41243D01*
X79697Y-41224D01*
X79659Y-41205D01*
X79566Y-41205D01*
X79509Y-41224D01*
X79378Y-41205D02*
X79284Y-41599D01*
X79209Y-41318D01*
X79135Y-41599D01*
X79041Y-41205D01*
X78685Y-41599D02*
X78910Y-41599D01*
X78797Y-41599D02*
X78797Y-41205D01*
X78835Y-41261D01*
X78872Y-41299D01*
X78910Y-41318D01*
X80254Y-39740D02*
X80197Y-39759D01*
X80104Y-39759D01*
X80066Y-39740D01*
X80047Y-39721D01*
X80029Y-39684D01*
X80029Y-39646D01*
X80047Y-39609D01*
X80066Y-39590D01*
X80104Y-39571D01*
X80179Y-39553D01*
X80216Y-39534D01*
X80235Y-39515D01*
X80254Y-39478D01*
X80254Y-39440D01*
X80235Y-39403D01*
X80216Y-39384D01*
X80179Y-39365D01*
X80085Y-39365D01*
X80029Y-39384D01*
X79898Y-39365D02*
X79804Y-39759D01*
X79729Y-39478D01*
X79654Y-39759D01*
X79560Y-39365D01*
X79504Y-39796D02*
X79204Y-39796D01*
X79110Y-39759D02*
X79110Y-39365D01*
X78960Y-39365D01*
X78923Y-39384D01*
X78904Y-39403D01*
X78885Y-39440D01*
X78885Y-39496D01*
X78904Y-39534D01*
X78923Y-39553D01*
X78960Y-39571D01*
X79110Y-39571D01*
X78716Y-39365D02*
X78716Y-39684D01*
X78698Y-39721D01*
X78679Y-39740D01*
X78641Y-39759D01*
X78566Y-39759D01*
X78529Y-39740D01*
X78510Y-39721D01*
X78491Y-39684D01*
X78491Y-39365D01*
X78323Y-39740D02*
X78266Y-39759D01*
X78173Y-39759D01*
X78135Y-39740D01*
X78116Y-39721D01*
X78098Y-39684D01*
X78098Y-39646D01*
X78116Y-39609D01*
X78135Y-39590D01*
X78173Y-39571D01*
X78248Y-39553D01*
X78285Y-39534D01*
X78304Y-39515D01*
X78323Y-39478D01*
X78323Y-39440D01*
X78304Y-39403D01*
X78285Y-39384D01*
X78248Y-39365D01*
X78154Y-39365D01*
X78098Y-39384D01*
X77929Y-39759D02*
X77929Y-39365D01*
X77929Y-39553D02*
X77704Y-39553D01*
X77704Y-39759D02*
X77704Y-39365D01*
M02*
