G04 (created by PCBNEW (2013-07-07 BZR 4022)-stable) date 1/28/2014 1:23:19 PM*
%MOIN*%
G04 Gerber Fmt 3.4, Leading zero omitted, Abs format*
%FSLAX34Y34*%
G01*
G70*
G90*
G04 APERTURE LIST*
%ADD10C,0.00590551*%
%ADD11R,0.055X0.055*%
%ADD12C,0.055*%
%ADD13R,0.03X0.06*%
%ADD14R,0.06X0.08*%
%ADD15R,0.055X0.035*%
%ADD16R,0.035X0.055*%
%ADD17R,0.025X0.045*%
%ADD18R,0.0216535X0.0590551*%
%ADD19R,0.0149606X0.0409449*%
%ADD20R,0.0165354X0.023622*%
%ADD21R,0.0944882X0.0905512*%
%ADD22R,0.011811X0.0393701*%
%ADD23C,0.0787402*%
%ADD24C,0.035*%
%ADD25C,0.01*%
G04 APERTURE END LIST*
G54D10*
G54D11*
X64950Y-43500D03*
G54D12*
X63950Y-43500D03*
X63950Y-42500D03*
G54D11*
X65300Y-48550D03*
G54D12*
X64300Y-48550D03*
X64300Y-47550D03*
G54D13*
X69650Y-47300D03*
X70150Y-47300D03*
X70650Y-47300D03*
X71150Y-47300D03*
X71650Y-47300D03*
X72150Y-47300D03*
X72650Y-47300D03*
X73150Y-47300D03*
X73650Y-47300D03*
X74150Y-47300D03*
X74650Y-47300D03*
X75200Y-47300D03*
X69650Y-44300D03*
X70150Y-44300D03*
X70650Y-44300D03*
X71150Y-44300D03*
X71650Y-44300D03*
X72150Y-44300D03*
X72650Y-44300D03*
X73150Y-44300D03*
X73650Y-44300D03*
X74150Y-44300D03*
X74650Y-44300D03*
X75150Y-44300D03*
G54D14*
X75150Y-52400D03*
X73850Y-52400D03*
X75150Y-49650D03*
X73850Y-49650D03*
G54D15*
X79600Y-50425D03*
X79600Y-49675D03*
G54D16*
X70975Y-52400D03*
X70225Y-52400D03*
X73325Y-41900D03*
X74075Y-41900D03*
G54D17*
X78250Y-52400D03*
X78850Y-52400D03*
X67350Y-46450D03*
X67950Y-46450D03*
G54D18*
X68850Y-41750D03*
X69350Y-41750D03*
X69850Y-41750D03*
X70350Y-41750D03*
X70850Y-41750D03*
X71350Y-41750D03*
X71850Y-41750D03*
X71850Y-39620D03*
X71350Y-39620D03*
X70850Y-39620D03*
X70350Y-39620D03*
X69850Y-39620D03*
X69350Y-39620D03*
X68850Y-39620D03*
G54D19*
X79510Y-47580D03*
X79770Y-47580D03*
X80030Y-47580D03*
X80290Y-47580D03*
X80290Y-45920D03*
X80030Y-45920D03*
X79770Y-45920D03*
X79510Y-45920D03*
G54D20*
X77860Y-45630D03*
X77600Y-45630D03*
X77340Y-45630D03*
X77350Y-46370D03*
X77610Y-46370D03*
X77870Y-46370D03*
G54D21*
X68400Y-50100D03*
G54D22*
X67630Y-51180D03*
X67890Y-51180D03*
X68150Y-51180D03*
X68410Y-51180D03*
X68670Y-51180D03*
X68930Y-51180D03*
X69190Y-51180D03*
X69200Y-49080D03*
X68940Y-49080D03*
X68680Y-49080D03*
X68420Y-49080D03*
X68160Y-49080D03*
X67900Y-49080D03*
X67640Y-49080D03*
G54D23*
X79930Y-42480D03*
X77990Y-42480D03*
X79930Y-40520D03*
X77970Y-40520D03*
G54D24*
X73050Y-38850D03*
X74250Y-41050D03*
X70800Y-42450D03*
X69850Y-43000D03*
X71000Y-48750D03*
X66600Y-41800D03*
X65350Y-38600D03*
X68600Y-43650D03*
G54D25*
X71350Y-38850D02*
X71350Y-39620D01*
X71400Y-38800D02*
X71350Y-38850D01*
X73000Y-38800D02*
X71400Y-38800D01*
X73050Y-38850D02*
X73000Y-38800D01*
X77600Y-45630D02*
X77600Y-44810D01*
X77600Y-44810D02*
X79930Y-42480D01*
X74075Y-41900D02*
X74075Y-41225D01*
X74075Y-41225D02*
X74250Y-41050D01*
X71850Y-39620D02*
X72720Y-39620D01*
X73325Y-40225D02*
X73325Y-41900D01*
X72720Y-39620D02*
X73325Y-40225D01*
X70850Y-41750D02*
X70850Y-42400D01*
X70850Y-42400D02*
X70800Y-42450D01*
X70150Y-47300D02*
X70150Y-47900D01*
X69850Y-43000D02*
X69850Y-41750D01*
X70150Y-47900D02*
X71000Y-48750D01*
X68850Y-41750D02*
X66650Y-41750D01*
X66650Y-41750D02*
X66600Y-41800D01*
X70850Y-38850D02*
X70850Y-39620D01*
X70550Y-38550D02*
X70850Y-38850D01*
X65400Y-38550D02*
X70550Y-38550D01*
X65350Y-38600D02*
X65400Y-38550D01*
X71850Y-42800D02*
X71850Y-41750D01*
X71100Y-43550D02*
X71850Y-42800D01*
X68700Y-43550D02*
X71100Y-43550D01*
X68600Y-43650D02*
X68700Y-43550D01*
X79600Y-49675D02*
X75175Y-49675D01*
X75175Y-49675D02*
X75150Y-49650D01*
X70975Y-52400D02*
X73850Y-52400D01*
X73850Y-49650D02*
X71150Y-49650D01*
X69650Y-48150D02*
X69650Y-47300D01*
X71150Y-49650D02*
X69650Y-48150D01*
X78250Y-52400D02*
X78250Y-51775D01*
X78250Y-51775D02*
X79600Y-50425D01*
X75150Y-52400D02*
X78250Y-52400D01*
G54D10*
G36*
X82350Y-54600D02*
X80614Y-54600D01*
X80614Y-47735D01*
X80614Y-47325D01*
X80614Y-46075D01*
X80614Y-45665D01*
X80576Y-45573D01*
X80573Y-45570D01*
X80573Y-42352D01*
X80573Y-40392D01*
X80476Y-40155D01*
X80295Y-39974D01*
X80058Y-39876D01*
X79802Y-39876D01*
X79565Y-39973D01*
X79384Y-40154D01*
X79286Y-40391D01*
X79286Y-40647D01*
X79383Y-40884D01*
X79564Y-41065D01*
X79801Y-41163D01*
X80057Y-41163D01*
X80294Y-41066D01*
X80475Y-40885D01*
X80573Y-40648D01*
X80573Y-40392D01*
X80573Y-42352D01*
X80476Y-42115D01*
X80295Y-41934D01*
X80058Y-41836D01*
X79802Y-41836D01*
X79565Y-41933D01*
X79384Y-42114D01*
X79286Y-42351D01*
X79286Y-42607D01*
X79313Y-42672D01*
X78633Y-43351D01*
X78633Y-42352D01*
X78613Y-42304D01*
X78613Y-40392D01*
X78516Y-40155D01*
X78335Y-39974D01*
X78098Y-39876D01*
X77842Y-39876D01*
X77605Y-39973D01*
X77424Y-40154D01*
X77326Y-40391D01*
X77326Y-40647D01*
X77423Y-40884D01*
X77604Y-41065D01*
X77841Y-41163D01*
X78097Y-41163D01*
X78334Y-41066D01*
X78515Y-40885D01*
X78613Y-40648D01*
X78613Y-40392D01*
X78613Y-42304D01*
X78536Y-42115D01*
X78355Y-41934D01*
X78118Y-41836D01*
X77862Y-41836D01*
X77625Y-41933D01*
X77444Y-42114D01*
X77346Y-42351D01*
X77346Y-42607D01*
X77443Y-42844D01*
X77624Y-43025D01*
X77861Y-43123D01*
X78117Y-43123D01*
X78354Y-43026D01*
X78535Y-42845D01*
X78633Y-42608D01*
X78633Y-42352D01*
X78633Y-43351D01*
X77387Y-44597D01*
X77322Y-44695D01*
X77300Y-44810D01*
X77300Y-45261D01*
X77207Y-45261D01*
X77115Y-45299D01*
X77045Y-45370D01*
X77007Y-45461D01*
X77007Y-45561D01*
X77007Y-45797D01*
X77045Y-45889D01*
X77115Y-45959D01*
X77207Y-45998D01*
X77306Y-45998D01*
X77472Y-45998D01*
X77472Y-45998D01*
X77566Y-45998D01*
X77732Y-45998D01*
X77732Y-45998D01*
X77826Y-45998D01*
X77992Y-45998D01*
X78084Y-45960D01*
X78154Y-45889D01*
X78192Y-45798D01*
X78192Y-45698D01*
X78192Y-45462D01*
X78154Y-45370D01*
X78084Y-45300D01*
X77992Y-45261D01*
X77900Y-45261D01*
X77900Y-44934D01*
X79737Y-43096D01*
X79801Y-43123D01*
X80057Y-43123D01*
X80294Y-43026D01*
X80475Y-42845D01*
X80573Y-42608D01*
X80573Y-42352D01*
X80573Y-45570D01*
X80506Y-45503D01*
X80414Y-45465D01*
X80315Y-45465D01*
X80165Y-45465D01*
X80160Y-45467D01*
X80154Y-45465D01*
X80055Y-45465D01*
X79905Y-45465D01*
X79900Y-45467D01*
X79894Y-45465D01*
X79795Y-45465D01*
X79645Y-45465D01*
X79640Y-45467D01*
X79634Y-45465D01*
X79535Y-45465D01*
X79385Y-45465D01*
X79293Y-45503D01*
X79223Y-45573D01*
X79185Y-45665D01*
X79185Y-45764D01*
X79185Y-46174D01*
X79223Y-46266D01*
X79293Y-46336D01*
X79385Y-46374D01*
X79484Y-46374D01*
X79634Y-46374D01*
X79639Y-46372D01*
X79645Y-46374D01*
X79744Y-46374D01*
X79894Y-46374D01*
X79899Y-46372D01*
X79905Y-46374D01*
X80004Y-46374D01*
X80154Y-46374D01*
X80159Y-46372D01*
X80165Y-46374D01*
X80264Y-46374D01*
X80414Y-46374D01*
X80506Y-46336D01*
X80576Y-46266D01*
X80614Y-46174D01*
X80614Y-46075D01*
X80614Y-47325D01*
X80576Y-47233D01*
X80506Y-47163D01*
X80414Y-47125D01*
X80315Y-47125D01*
X80165Y-47125D01*
X80160Y-47127D01*
X80154Y-47125D01*
X80055Y-47125D01*
X79905Y-47125D01*
X79900Y-47127D01*
X79894Y-47125D01*
X79795Y-47125D01*
X79645Y-47125D01*
X79640Y-47127D01*
X79634Y-47125D01*
X79535Y-47125D01*
X79385Y-47125D01*
X79293Y-47163D01*
X79223Y-47233D01*
X79185Y-47325D01*
X79185Y-47424D01*
X79185Y-47834D01*
X79223Y-47926D01*
X79293Y-47996D01*
X79385Y-48034D01*
X79484Y-48034D01*
X79634Y-48034D01*
X79639Y-48032D01*
X79645Y-48034D01*
X79744Y-48034D01*
X79894Y-48034D01*
X79899Y-48032D01*
X79905Y-48034D01*
X80004Y-48034D01*
X80154Y-48034D01*
X80159Y-48032D01*
X80165Y-48034D01*
X80264Y-48034D01*
X80414Y-48034D01*
X80506Y-47996D01*
X80576Y-47926D01*
X80614Y-47834D01*
X80614Y-47735D01*
X80614Y-54600D01*
X80125Y-54600D01*
X80125Y-50649D01*
X80125Y-50200D01*
X80087Y-50108D01*
X80028Y-50049D01*
X80086Y-49991D01*
X80124Y-49899D01*
X80125Y-49800D01*
X80125Y-49450D01*
X80087Y-49358D01*
X80016Y-49288D01*
X79924Y-49250D01*
X79825Y-49249D01*
X79275Y-49249D01*
X79183Y-49287D01*
X79113Y-49358D01*
X79106Y-49375D01*
X78202Y-49375D01*
X78202Y-46438D01*
X78202Y-46202D01*
X78164Y-46110D01*
X78094Y-46040D01*
X78002Y-46001D01*
X77903Y-46001D01*
X77737Y-46001D01*
X77737Y-46001D01*
X77643Y-46001D01*
X77477Y-46001D01*
X77477Y-46001D01*
X77383Y-46001D01*
X77217Y-46001D01*
X77125Y-46039D01*
X77055Y-46110D01*
X77017Y-46201D01*
X77017Y-46301D01*
X77017Y-46537D01*
X77055Y-46629D01*
X77125Y-46699D01*
X77217Y-46738D01*
X77316Y-46738D01*
X77482Y-46738D01*
X77482Y-46738D01*
X77576Y-46738D01*
X77742Y-46738D01*
X77742Y-46738D01*
X77836Y-46738D01*
X78002Y-46738D01*
X78094Y-46700D01*
X78164Y-46629D01*
X78202Y-46538D01*
X78202Y-46438D01*
X78202Y-49375D01*
X75700Y-49375D01*
X75700Y-49200D01*
X75662Y-49108D01*
X75600Y-49046D01*
X75600Y-47550D01*
X75600Y-46950D01*
X75562Y-46858D01*
X75550Y-46846D01*
X75550Y-44550D01*
X75550Y-43950D01*
X75512Y-43858D01*
X75441Y-43788D01*
X75349Y-43750D01*
X75250Y-43749D01*
X74950Y-43749D01*
X74899Y-43770D01*
X74849Y-43750D01*
X74750Y-43749D01*
X74450Y-43749D01*
X74399Y-43770D01*
X74349Y-43750D01*
X74250Y-43749D01*
X73950Y-43749D01*
X73899Y-43770D01*
X73849Y-43750D01*
X73750Y-43749D01*
X73450Y-43749D01*
X73399Y-43770D01*
X73349Y-43750D01*
X73250Y-43749D01*
X72950Y-43749D01*
X72899Y-43770D01*
X72849Y-43750D01*
X72750Y-43749D01*
X72450Y-43749D01*
X72399Y-43770D01*
X72349Y-43750D01*
X72250Y-43749D01*
X71950Y-43749D01*
X71899Y-43770D01*
X71849Y-43750D01*
X71750Y-43749D01*
X71450Y-43749D01*
X71399Y-43770D01*
X71349Y-43750D01*
X71324Y-43750D01*
X72062Y-43012D01*
X72062Y-43012D01*
X72127Y-42914D01*
X72149Y-42800D01*
X72150Y-42800D01*
X72150Y-42207D01*
X72170Y-42187D01*
X72208Y-42095D01*
X72208Y-41995D01*
X72208Y-41405D01*
X72170Y-41313D01*
X72100Y-41242D01*
X72008Y-41204D01*
X71908Y-41204D01*
X71692Y-41204D01*
X71600Y-41242D01*
X71600Y-41242D01*
X71508Y-41204D01*
X71408Y-41204D01*
X71192Y-41204D01*
X71100Y-41242D01*
X71100Y-41242D01*
X71008Y-41204D01*
X70908Y-41204D01*
X70692Y-41204D01*
X70600Y-41242D01*
X70600Y-41242D01*
X70508Y-41204D01*
X70408Y-41204D01*
X70192Y-41204D01*
X70100Y-41242D01*
X70100Y-41242D01*
X70008Y-41204D01*
X69908Y-41204D01*
X69692Y-41204D01*
X69600Y-41242D01*
X69600Y-41242D01*
X69508Y-41204D01*
X69408Y-41204D01*
X69192Y-41204D01*
X69100Y-41242D01*
X69100Y-41242D01*
X69008Y-41204D01*
X68908Y-41204D01*
X68692Y-41204D01*
X68600Y-41242D01*
X68529Y-41312D01*
X68491Y-41404D01*
X68491Y-41450D01*
X66851Y-41450D01*
X66841Y-41439D01*
X66684Y-41375D01*
X66515Y-41374D01*
X66359Y-41439D01*
X66239Y-41558D01*
X66175Y-41715D01*
X66174Y-41884D01*
X66239Y-42040D01*
X66358Y-42160D01*
X66515Y-42224D01*
X66684Y-42225D01*
X66840Y-42160D01*
X66951Y-42050D01*
X68491Y-42050D01*
X68491Y-42094D01*
X68529Y-42186D01*
X68599Y-42257D01*
X68691Y-42295D01*
X68791Y-42295D01*
X69007Y-42295D01*
X69099Y-42257D01*
X69099Y-42257D01*
X69191Y-42295D01*
X69291Y-42295D01*
X69507Y-42295D01*
X69550Y-42277D01*
X69550Y-42698D01*
X69489Y-42758D01*
X69425Y-42915D01*
X69424Y-43084D01*
X69489Y-43240D01*
X69499Y-43250D01*
X68744Y-43250D01*
X68684Y-43225D01*
X68515Y-43224D01*
X68359Y-43289D01*
X68239Y-43408D01*
X68175Y-43565D01*
X68174Y-43734D01*
X68239Y-43890D01*
X68358Y-44010D01*
X68515Y-44074D01*
X68684Y-44075D01*
X68840Y-44010D01*
X68960Y-43891D01*
X68977Y-43850D01*
X69296Y-43850D01*
X69288Y-43858D01*
X69250Y-43950D01*
X69249Y-44049D01*
X69249Y-44649D01*
X69287Y-44741D01*
X69358Y-44811D01*
X69450Y-44849D01*
X69549Y-44850D01*
X69849Y-44850D01*
X69900Y-44829D01*
X69950Y-44849D01*
X70049Y-44850D01*
X70349Y-44850D01*
X70400Y-44829D01*
X70450Y-44849D01*
X70549Y-44850D01*
X70849Y-44850D01*
X70900Y-44829D01*
X70950Y-44849D01*
X71049Y-44850D01*
X71349Y-44850D01*
X71400Y-44829D01*
X71450Y-44849D01*
X71549Y-44850D01*
X71849Y-44850D01*
X71900Y-44829D01*
X71950Y-44849D01*
X72049Y-44850D01*
X72349Y-44850D01*
X72400Y-44829D01*
X72450Y-44849D01*
X72549Y-44850D01*
X72849Y-44850D01*
X72900Y-44829D01*
X72950Y-44849D01*
X73049Y-44850D01*
X73349Y-44850D01*
X73400Y-44829D01*
X73450Y-44849D01*
X73549Y-44850D01*
X73849Y-44850D01*
X73900Y-44829D01*
X73950Y-44849D01*
X74049Y-44850D01*
X74349Y-44850D01*
X74400Y-44829D01*
X74450Y-44849D01*
X74549Y-44850D01*
X74849Y-44850D01*
X74900Y-44829D01*
X74950Y-44849D01*
X75049Y-44850D01*
X75349Y-44850D01*
X75441Y-44812D01*
X75511Y-44741D01*
X75549Y-44649D01*
X75550Y-44550D01*
X75550Y-46846D01*
X75491Y-46788D01*
X75399Y-46750D01*
X75300Y-46749D01*
X75000Y-46749D01*
X74924Y-46781D01*
X74849Y-46750D01*
X74750Y-46749D01*
X74450Y-46749D01*
X74399Y-46770D01*
X74349Y-46750D01*
X74250Y-46749D01*
X73950Y-46749D01*
X73899Y-46770D01*
X73849Y-46750D01*
X73750Y-46749D01*
X73450Y-46749D01*
X73399Y-46770D01*
X73349Y-46750D01*
X73250Y-46749D01*
X72950Y-46749D01*
X72899Y-46770D01*
X72849Y-46750D01*
X72750Y-46749D01*
X72450Y-46749D01*
X72399Y-46770D01*
X72349Y-46750D01*
X72250Y-46749D01*
X71950Y-46749D01*
X71899Y-46770D01*
X71849Y-46750D01*
X71750Y-46749D01*
X71450Y-46749D01*
X71399Y-46770D01*
X71349Y-46750D01*
X71250Y-46749D01*
X70950Y-46749D01*
X70899Y-46770D01*
X70849Y-46750D01*
X70750Y-46749D01*
X70450Y-46749D01*
X70399Y-46770D01*
X70349Y-46750D01*
X70250Y-46749D01*
X69950Y-46749D01*
X69899Y-46770D01*
X69849Y-46750D01*
X69750Y-46749D01*
X69450Y-46749D01*
X69358Y-46787D01*
X69288Y-46858D01*
X69250Y-46950D01*
X69249Y-47049D01*
X69249Y-47649D01*
X69287Y-47741D01*
X69350Y-47803D01*
X69350Y-48150D01*
X69372Y-48264D01*
X69437Y-48362D01*
X70937Y-49862D01*
X70937Y-49862D01*
X71035Y-49927D01*
X71150Y-49950D01*
X73299Y-49950D01*
X73299Y-50099D01*
X73337Y-50191D01*
X73408Y-50261D01*
X73500Y-50299D01*
X73599Y-50300D01*
X74199Y-50300D01*
X74291Y-50262D01*
X74361Y-50191D01*
X74399Y-50099D01*
X74400Y-50000D01*
X74400Y-49200D01*
X74362Y-49108D01*
X74291Y-49038D01*
X74199Y-49000D01*
X74100Y-48999D01*
X73500Y-48999D01*
X73408Y-49037D01*
X73338Y-49108D01*
X73300Y-49200D01*
X73299Y-49299D01*
X73299Y-49350D01*
X71274Y-49350D01*
X71094Y-49170D01*
X71240Y-49110D01*
X71360Y-48991D01*
X71424Y-48834D01*
X71425Y-48665D01*
X71360Y-48509D01*
X71241Y-48389D01*
X71084Y-48325D01*
X70999Y-48324D01*
X70524Y-47850D01*
X70549Y-47850D01*
X70849Y-47850D01*
X70900Y-47829D01*
X70950Y-47849D01*
X71049Y-47850D01*
X71349Y-47850D01*
X71400Y-47829D01*
X71450Y-47849D01*
X71549Y-47850D01*
X71849Y-47850D01*
X71900Y-47829D01*
X71950Y-47849D01*
X72049Y-47850D01*
X72349Y-47850D01*
X72400Y-47829D01*
X72450Y-47849D01*
X72549Y-47850D01*
X72849Y-47850D01*
X72900Y-47829D01*
X72950Y-47849D01*
X73049Y-47850D01*
X73349Y-47850D01*
X73400Y-47829D01*
X73450Y-47849D01*
X73549Y-47850D01*
X73849Y-47850D01*
X73900Y-47829D01*
X73950Y-47849D01*
X74049Y-47850D01*
X74349Y-47850D01*
X74400Y-47829D01*
X74450Y-47849D01*
X74549Y-47850D01*
X74849Y-47850D01*
X74925Y-47818D01*
X75000Y-47849D01*
X75099Y-47850D01*
X75399Y-47850D01*
X75491Y-47812D01*
X75561Y-47741D01*
X75599Y-47649D01*
X75600Y-47550D01*
X75600Y-49046D01*
X75591Y-49038D01*
X75499Y-49000D01*
X75400Y-48999D01*
X74800Y-48999D01*
X74708Y-49037D01*
X74638Y-49108D01*
X74600Y-49200D01*
X74599Y-49299D01*
X74599Y-50099D01*
X74637Y-50191D01*
X74708Y-50261D01*
X74800Y-50299D01*
X74899Y-50300D01*
X75499Y-50300D01*
X75591Y-50262D01*
X75661Y-50191D01*
X75699Y-50099D01*
X75700Y-50000D01*
X75700Y-49975D01*
X79106Y-49975D01*
X79112Y-49991D01*
X79171Y-50050D01*
X79112Y-50108D01*
X79074Y-50200D01*
X79075Y-50312D01*
X79137Y-50375D01*
X79550Y-50375D01*
X79550Y-50367D01*
X79650Y-50367D01*
X79650Y-50375D01*
X80062Y-50375D01*
X80125Y-50312D01*
X80125Y-50200D01*
X80125Y-50649D01*
X80125Y-50537D01*
X80062Y-50475D01*
X79650Y-50475D01*
X79650Y-50787D01*
X79712Y-50850D01*
X79825Y-50850D01*
X79924Y-50849D01*
X80016Y-50811D01*
X80087Y-50741D01*
X80125Y-50649D01*
X80125Y-54600D01*
X79550Y-54600D01*
X79550Y-50787D01*
X79550Y-50475D01*
X79137Y-50475D01*
X79075Y-50537D01*
X79074Y-50649D01*
X79112Y-50741D01*
X79183Y-50811D01*
X79275Y-50849D01*
X79374Y-50850D01*
X79487Y-50850D01*
X79550Y-50787D01*
X79550Y-54600D01*
X79225Y-54600D01*
X79225Y-52575D01*
X79225Y-52125D01*
X79187Y-52033D01*
X79116Y-51963D01*
X79024Y-51925D01*
X78925Y-51924D01*
X78675Y-51924D01*
X78583Y-51962D01*
X78550Y-51996D01*
X78516Y-51962D01*
X78424Y-51924D01*
X78362Y-51925D01*
X78300Y-51987D01*
X78300Y-52350D01*
X78307Y-52350D01*
X78307Y-52450D01*
X78300Y-52450D01*
X78300Y-52812D01*
X78362Y-52875D01*
X78424Y-52875D01*
X78516Y-52837D01*
X78549Y-52803D01*
X78583Y-52836D01*
X78675Y-52874D01*
X78774Y-52875D01*
X79024Y-52875D01*
X79116Y-52837D01*
X79186Y-52766D01*
X79224Y-52674D01*
X79225Y-52575D01*
X79225Y-54600D01*
X78200Y-54600D01*
X78200Y-52812D01*
X78200Y-52450D01*
X78200Y-52350D01*
X78200Y-51987D01*
X78137Y-51925D01*
X78075Y-51924D01*
X77983Y-51962D01*
X77913Y-52033D01*
X77875Y-52125D01*
X77874Y-52224D01*
X77875Y-52287D01*
X77937Y-52350D01*
X78200Y-52350D01*
X78200Y-52450D01*
X77937Y-52450D01*
X77875Y-52512D01*
X77874Y-52575D01*
X77875Y-52674D01*
X77913Y-52766D01*
X77983Y-52837D01*
X78075Y-52875D01*
X78137Y-52875D01*
X78200Y-52812D01*
X78200Y-54600D01*
X75700Y-54600D01*
X75700Y-52750D01*
X75700Y-52049D01*
X75699Y-51950D01*
X75661Y-51858D01*
X75591Y-51787D01*
X75499Y-51749D01*
X75262Y-51750D01*
X75200Y-51812D01*
X75200Y-52350D01*
X75637Y-52350D01*
X75700Y-52287D01*
X75700Y-52049D01*
X75700Y-52750D01*
X75700Y-52512D01*
X75637Y-52450D01*
X75200Y-52450D01*
X75200Y-52987D01*
X75262Y-53050D01*
X75499Y-53050D01*
X75591Y-53012D01*
X75661Y-52941D01*
X75699Y-52849D01*
X75700Y-52750D01*
X75700Y-54600D01*
X75100Y-54600D01*
X75100Y-52987D01*
X75100Y-52450D01*
X75100Y-52350D01*
X75100Y-51812D01*
X75037Y-51750D01*
X74800Y-51749D01*
X74708Y-51787D01*
X74638Y-51858D01*
X74600Y-51950D01*
X74599Y-52049D01*
X74600Y-52287D01*
X74662Y-52350D01*
X75100Y-52350D01*
X75100Y-52450D01*
X74662Y-52450D01*
X74600Y-52512D01*
X74599Y-52750D01*
X74600Y-52849D01*
X74638Y-52941D01*
X74708Y-53012D01*
X74800Y-53050D01*
X75037Y-53050D01*
X75100Y-52987D01*
X75100Y-54600D01*
X74400Y-54600D01*
X74400Y-52750D01*
X74400Y-51950D01*
X74362Y-51858D01*
X74291Y-51788D01*
X74199Y-51750D01*
X74100Y-51749D01*
X73500Y-51749D01*
X73408Y-51787D01*
X73338Y-51858D01*
X73300Y-51950D01*
X73299Y-52049D01*
X73299Y-52100D01*
X71400Y-52100D01*
X71400Y-52075D01*
X71362Y-51983D01*
X71291Y-51913D01*
X71199Y-51875D01*
X71100Y-51874D01*
X70750Y-51874D01*
X70658Y-51912D01*
X70599Y-51971D01*
X70541Y-51913D01*
X70449Y-51875D01*
X70350Y-51874D01*
X70000Y-51874D01*
X69908Y-51912D01*
X69838Y-51983D01*
X69800Y-52075D01*
X69799Y-52174D01*
X69799Y-52724D01*
X69837Y-52816D01*
X69908Y-52886D01*
X70000Y-52924D01*
X70099Y-52925D01*
X70449Y-52925D01*
X70541Y-52887D01*
X70600Y-52828D01*
X70658Y-52886D01*
X70750Y-52924D01*
X70849Y-52925D01*
X71199Y-52925D01*
X71291Y-52887D01*
X71361Y-52816D01*
X71399Y-52724D01*
X71399Y-52700D01*
X73299Y-52700D01*
X73299Y-52849D01*
X73337Y-52941D01*
X73408Y-53011D01*
X73500Y-53049D01*
X73599Y-53050D01*
X74199Y-53050D01*
X74291Y-53012D01*
X74361Y-52941D01*
X74399Y-52849D01*
X74400Y-52750D01*
X74400Y-54600D01*
X69509Y-54600D01*
X69509Y-49227D01*
X69509Y-48833D01*
X69471Y-48741D01*
X69400Y-48671D01*
X69309Y-48633D01*
X69209Y-48633D01*
X69091Y-48633D01*
X69070Y-48641D01*
X69049Y-48633D01*
X68949Y-48633D01*
X68831Y-48633D01*
X68810Y-48641D01*
X68789Y-48633D01*
X68689Y-48633D01*
X68571Y-48633D01*
X68550Y-48641D01*
X68529Y-48633D01*
X68429Y-48633D01*
X68325Y-48633D01*
X68325Y-46625D01*
X68325Y-46175D01*
X68287Y-46083D01*
X68216Y-46013D01*
X68124Y-45975D01*
X68025Y-45974D01*
X67775Y-45974D01*
X67683Y-46012D01*
X67650Y-46046D01*
X67616Y-46013D01*
X67524Y-45975D01*
X67425Y-45974D01*
X67175Y-45974D01*
X67083Y-46012D01*
X67013Y-46083D01*
X66975Y-46175D01*
X66974Y-46274D01*
X66974Y-46724D01*
X67012Y-46816D01*
X67083Y-46886D01*
X67175Y-46924D01*
X67274Y-46925D01*
X67524Y-46925D01*
X67616Y-46887D01*
X67649Y-46853D01*
X67683Y-46886D01*
X67775Y-46924D01*
X67874Y-46925D01*
X68124Y-46925D01*
X68216Y-46887D01*
X68286Y-46816D01*
X68324Y-46724D01*
X68325Y-46625D01*
X68325Y-48633D01*
X68311Y-48633D01*
X68290Y-48641D01*
X68269Y-48633D01*
X68169Y-48633D01*
X68051Y-48633D01*
X68030Y-48641D01*
X68009Y-48633D01*
X67909Y-48633D01*
X67791Y-48633D01*
X67770Y-48641D01*
X67749Y-48633D01*
X67649Y-48633D01*
X67531Y-48633D01*
X67439Y-48671D01*
X67369Y-48741D01*
X67330Y-48833D01*
X67330Y-48932D01*
X67330Y-49326D01*
X67368Y-49418D01*
X67439Y-49488D01*
X67530Y-49526D01*
X67630Y-49526D01*
X67706Y-49526D01*
X67677Y-49597D01*
X67677Y-49696D01*
X67677Y-50602D01*
X67715Y-50694D01*
X67762Y-50741D01*
X67760Y-50741D01*
X67739Y-50733D01*
X67639Y-50733D01*
X67521Y-50733D01*
X67429Y-50771D01*
X67359Y-50841D01*
X67320Y-50933D01*
X67320Y-51032D01*
X67320Y-51426D01*
X67358Y-51518D01*
X67429Y-51588D01*
X67520Y-51626D01*
X67620Y-51626D01*
X67738Y-51626D01*
X67759Y-51618D01*
X67780Y-51626D01*
X67880Y-51626D01*
X67998Y-51626D01*
X68019Y-51618D01*
X68040Y-51626D01*
X68140Y-51626D01*
X68258Y-51626D01*
X68279Y-51618D01*
X68300Y-51626D01*
X68400Y-51626D01*
X68518Y-51626D01*
X68539Y-51618D01*
X68560Y-51626D01*
X68660Y-51626D01*
X68778Y-51626D01*
X68799Y-51618D01*
X68820Y-51626D01*
X68920Y-51626D01*
X69038Y-51626D01*
X69059Y-51618D01*
X69080Y-51626D01*
X69180Y-51626D01*
X69298Y-51626D01*
X69390Y-51588D01*
X69460Y-51518D01*
X69499Y-51426D01*
X69499Y-51327D01*
X69499Y-50933D01*
X69461Y-50841D01*
X69390Y-50771D01*
X69299Y-50733D01*
X69199Y-50733D01*
X69081Y-50733D01*
X69060Y-50741D01*
X69043Y-50735D01*
X69084Y-50694D01*
X69122Y-50602D01*
X69122Y-50503D01*
X69122Y-49597D01*
X69093Y-49526D01*
X69190Y-49526D01*
X69308Y-49526D01*
X69400Y-49488D01*
X69470Y-49418D01*
X69509Y-49326D01*
X69509Y-49227D01*
X69509Y-54600D01*
X65825Y-54600D01*
X65825Y-48775D01*
X65825Y-48225D01*
X65787Y-48133D01*
X65716Y-48063D01*
X65624Y-48025D01*
X65525Y-48024D01*
X65475Y-48024D01*
X65475Y-43725D01*
X65475Y-43175D01*
X65437Y-43083D01*
X65366Y-43013D01*
X65274Y-42975D01*
X65175Y-42974D01*
X64625Y-42974D01*
X64533Y-43012D01*
X64463Y-43083D01*
X64425Y-43175D01*
X64424Y-43274D01*
X64424Y-43274D01*
X64395Y-43203D01*
X64247Y-43055D01*
X64114Y-42999D01*
X64247Y-42945D01*
X64394Y-42797D01*
X64474Y-42604D01*
X64475Y-42396D01*
X64395Y-42203D01*
X64247Y-42055D01*
X64054Y-41975D01*
X63846Y-41974D01*
X63653Y-42054D01*
X63505Y-42202D01*
X63425Y-42395D01*
X63424Y-42603D01*
X63504Y-42797D01*
X63652Y-42944D01*
X63785Y-43000D01*
X63653Y-43054D01*
X63505Y-43202D01*
X63425Y-43395D01*
X63424Y-43603D01*
X63504Y-43797D01*
X63652Y-43944D01*
X63845Y-44024D01*
X64053Y-44025D01*
X64247Y-43945D01*
X64394Y-43797D01*
X64424Y-43725D01*
X64424Y-43824D01*
X64462Y-43916D01*
X64533Y-43986D01*
X64625Y-44024D01*
X64724Y-44025D01*
X65274Y-44025D01*
X65366Y-43987D01*
X65436Y-43916D01*
X65474Y-43824D01*
X65475Y-43725D01*
X65475Y-48024D01*
X64975Y-48024D01*
X64883Y-48062D01*
X64813Y-48133D01*
X64775Y-48225D01*
X64774Y-48324D01*
X64774Y-48324D01*
X64745Y-48253D01*
X64597Y-48105D01*
X64464Y-48049D01*
X64597Y-47995D01*
X64744Y-47847D01*
X64824Y-47654D01*
X64825Y-47446D01*
X64745Y-47253D01*
X64597Y-47105D01*
X64404Y-47025D01*
X64196Y-47024D01*
X64003Y-47104D01*
X63855Y-47252D01*
X63775Y-47445D01*
X63774Y-47653D01*
X63854Y-47847D01*
X64002Y-47994D01*
X64135Y-48050D01*
X64003Y-48104D01*
X63855Y-48252D01*
X63775Y-48445D01*
X63774Y-48653D01*
X63854Y-48847D01*
X64002Y-48994D01*
X64195Y-49074D01*
X64403Y-49075D01*
X64597Y-48995D01*
X64744Y-48847D01*
X64774Y-48775D01*
X64774Y-48874D01*
X64812Y-48966D01*
X64883Y-49036D01*
X64975Y-49074D01*
X65074Y-49075D01*
X65624Y-49075D01*
X65716Y-49037D01*
X65786Y-48966D01*
X65824Y-48874D01*
X65825Y-48775D01*
X65825Y-54600D01*
X62100Y-54600D01*
X62100Y-38350D01*
X64998Y-38350D01*
X64989Y-38358D01*
X64925Y-38515D01*
X64924Y-38684D01*
X64989Y-38840D01*
X65108Y-38960D01*
X65265Y-39024D01*
X65434Y-39025D01*
X65590Y-38960D01*
X65701Y-38850D01*
X70425Y-38850D01*
X70550Y-38974D01*
X70550Y-39092D01*
X70508Y-39074D01*
X70408Y-39074D01*
X70192Y-39074D01*
X70100Y-39112D01*
X70100Y-39112D01*
X70008Y-39074D01*
X69908Y-39074D01*
X69692Y-39074D01*
X69600Y-39112D01*
X69600Y-39112D01*
X69508Y-39074D01*
X69408Y-39074D01*
X69192Y-39074D01*
X69100Y-39112D01*
X69100Y-39112D01*
X69008Y-39074D01*
X68908Y-39074D01*
X68692Y-39074D01*
X68600Y-39112D01*
X68529Y-39182D01*
X68491Y-39274D01*
X68491Y-39374D01*
X68491Y-39964D01*
X68529Y-40056D01*
X68599Y-40127D01*
X68691Y-40165D01*
X68791Y-40165D01*
X69007Y-40165D01*
X69099Y-40127D01*
X69099Y-40127D01*
X69191Y-40165D01*
X69291Y-40165D01*
X69507Y-40165D01*
X69599Y-40127D01*
X69599Y-40127D01*
X69691Y-40165D01*
X69791Y-40165D01*
X70007Y-40165D01*
X70099Y-40127D01*
X70099Y-40127D01*
X70191Y-40165D01*
X70291Y-40165D01*
X70507Y-40165D01*
X70599Y-40127D01*
X70599Y-40127D01*
X70691Y-40165D01*
X70791Y-40165D01*
X71007Y-40165D01*
X71099Y-40127D01*
X71099Y-40127D01*
X71191Y-40165D01*
X71291Y-40165D01*
X71507Y-40165D01*
X71599Y-40127D01*
X71599Y-40127D01*
X71691Y-40165D01*
X71791Y-40165D01*
X72007Y-40165D01*
X72099Y-40127D01*
X72170Y-40057D01*
X72208Y-39965D01*
X72208Y-39920D01*
X72595Y-39920D01*
X73025Y-40349D01*
X73025Y-41406D01*
X73008Y-41412D01*
X72938Y-41483D01*
X72900Y-41575D01*
X72899Y-41674D01*
X72899Y-42224D01*
X72937Y-42316D01*
X73008Y-42386D01*
X73100Y-42424D01*
X73199Y-42425D01*
X73549Y-42425D01*
X73641Y-42387D01*
X73700Y-42328D01*
X73758Y-42386D01*
X73850Y-42424D01*
X73949Y-42425D01*
X74299Y-42425D01*
X74391Y-42387D01*
X74461Y-42316D01*
X74499Y-42224D01*
X74500Y-42125D01*
X74500Y-41575D01*
X74462Y-41483D01*
X74418Y-41440D01*
X74490Y-41410D01*
X74610Y-41291D01*
X74674Y-41134D01*
X74675Y-40965D01*
X74610Y-40809D01*
X74491Y-40689D01*
X74334Y-40625D01*
X74165Y-40624D01*
X74009Y-40689D01*
X73889Y-40808D01*
X73825Y-40965D01*
X73824Y-41069D01*
X73824Y-41069D01*
X73797Y-41110D01*
X73775Y-41225D01*
X73775Y-41406D01*
X73758Y-41412D01*
X73699Y-41471D01*
X73641Y-41413D01*
X73625Y-41406D01*
X73625Y-40225D01*
X73624Y-40224D01*
X73602Y-40110D01*
X73537Y-40012D01*
X73537Y-40012D01*
X72932Y-39407D01*
X72834Y-39342D01*
X72720Y-39320D01*
X72208Y-39320D01*
X72208Y-39275D01*
X72170Y-39183D01*
X72100Y-39112D01*
X72068Y-39100D01*
X72699Y-39100D01*
X72808Y-39210D01*
X72965Y-39274D01*
X73134Y-39275D01*
X73290Y-39210D01*
X73410Y-39091D01*
X73474Y-38934D01*
X73475Y-38765D01*
X73410Y-38609D01*
X73291Y-38489D01*
X73134Y-38425D01*
X72965Y-38424D01*
X72809Y-38489D01*
X72799Y-38500D01*
X71400Y-38500D01*
X71285Y-38522D01*
X71187Y-38587D01*
X71137Y-38637D01*
X71100Y-38694D01*
X71062Y-38637D01*
X71062Y-38637D01*
X70774Y-38350D01*
X82350Y-38350D01*
X82350Y-54600D01*
X82350Y-54600D01*
G37*
G54D25*
X82350Y-54600D02*
X80614Y-54600D01*
X80614Y-47735D01*
X80614Y-47325D01*
X80614Y-46075D01*
X80614Y-45665D01*
X80576Y-45573D01*
X80573Y-45570D01*
X80573Y-42352D01*
X80573Y-40392D01*
X80476Y-40155D01*
X80295Y-39974D01*
X80058Y-39876D01*
X79802Y-39876D01*
X79565Y-39973D01*
X79384Y-40154D01*
X79286Y-40391D01*
X79286Y-40647D01*
X79383Y-40884D01*
X79564Y-41065D01*
X79801Y-41163D01*
X80057Y-41163D01*
X80294Y-41066D01*
X80475Y-40885D01*
X80573Y-40648D01*
X80573Y-40392D01*
X80573Y-42352D01*
X80476Y-42115D01*
X80295Y-41934D01*
X80058Y-41836D01*
X79802Y-41836D01*
X79565Y-41933D01*
X79384Y-42114D01*
X79286Y-42351D01*
X79286Y-42607D01*
X79313Y-42672D01*
X78633Y-43351D01*
X78633Y-42352D01*
X78613Y-42304D01*
X78613Y-40392D01*
X78516Y-40155D01*
X78335Y-39974D01*
X78098Y-39876D01*
X77842Y-39876D01*
X77605Y-39973D01*
X77424Y-40154D01*
X77326Y-40391D01*
X77326Y-40647D01*
X77423Y-40884D01*
X77604Y-41065D01*
X77841Y-41163D01*
X78097Y-41163D01*
X78334Y-41066D01*
X78515Y-40885D01*
X78613Y-40648D01*
X78613Y-40392D01*
X78613Y-42304D01*
X78536Y-42115D01*
X78355Y-41934D01*
X78118Y-41836D01*
X77862Y-41836D01*
X77625Y-41933D01*
X77444Y-42114D01*
X77346Y-42351D01*
X77346Y-42607D01*
X77443Y-42844D01*
X77624Y-43025D01*
X77861Y-43123D01*
X78117Y-43123D01*
X78354Y-43026D01*
X78535Y-42845D01*
X78633Y-42608D01*
X78633Y-42352D01*
X78633Y-43351D01*
X77387Y-44597D01*
X77322Y-44695D01*
X77300Y-44810D01*
X77300Y-45261D01*
X77207Y-45261D01*
X77115Y-45299D01*
X77045Y-45370D01*
X77007Y-45461D01*
X77007Y-45561D01*
X77007Y-45797D01*
X77045Y-45889D01*
X77115Y-45959D01*
X77207Y-45998D01*
X77306Y-45998D01*
X77472Y-45998D01*
X77472Y-45998D01*
X77566Y-45998D01*
X77732Y-45998D01*
X77732Y-45998D01*
X77826Y-45998D01*
X77992Y-45998D01*
X78084Y-45960D01*
X78154Y-45889D01*
X78192Y-45798D01*
X78192Y-45698D01*
X78192Y-45462D01*
X78154Y-45370D01*
X78084Y-45300D01*
X77992Y-45261D01*
X77900Y-45261D01*
X77900Y-44934D01*
X79737Y-43096D01*
X79801Y-43123D01*
X80057Y-43123D01*
X80294Y-43026D01*
X80475Y-42845D01*
X80573Y-42608D01*
X80573Y-42352D01*
X80573Y-45570D01*
X80506Y-45503D01*
X80414Y-45465D01*
X80315Y-45465D01*
X80165Y-45465D01*
X80160Y-45467D01*
X80154Y-45465D01*
X80055Y-45465D01*
X79905Y-45465D01*
X79900Y-45467D01*
X79894Y-45465D01*
X79795Y-45465D01*
X79645Y-45465D01*
X79640Y-45467D01*
X79634Y-45465D01*
X79535Y-45465D01*
X79385Y-45465D01*
X79293Y-45503D01*
X79223Y-45573D01*
X79185Y-45665D01*
X79185Y-45764D01*
X79185Y-46174D01*
X79223Y-46266D01*
X79293Y-46336D01*
X79385Y-46374D01*
X79484Y-46374D01*
X79634Y-46374D01*
X79639Y-46372D01*
X79645Y-46374D01*
X79744Y-46374D01*
X79894Y-46374D01*
X79899Y-46372D01*
X79905Y-46374D01*
X80004Y-46374D01*
X80154Y-46374D01*
X80159Y-46372D01*
X80165Y-46374D01*
X80264Y-46374D01*
X80414Y-46374D01*
X80506Y-46336D01*
X80576Y-46266D01*
X80614Y-46174D01*
X80614Y-46075D01*
X80614Y-47325D01*
X80576Y-47233D01*
X80506Y-47163D01*
X80414Y-47125D01*
X80315Y-47125D01*
X80165Y-47125D01*
X80160Y-47127D01*
X80154Y-47125D01*
X80055Y-47125D01*
X79905Y-47125D01*
X79900Y-47127D01*
X79894Y-47125D01*
X79795Y-47125D01*
X79645Y-47125D01*
X79640Y-47127D01*
X79634Y-47125D01*
X79535Y-47125D01*
X79385Y-47125D01*
X79293Y-47163D01*
X79223Y-47233D01*
X79185Y-47325D01*
X79185Y-47424D01*
X79185Y-47834D01*
X79223Y-47926D01*
X79293Y-47996D01*
X79385Y-48034D01*
X79484Y-48034D01*
X79634Y-48034D01*
X79639Y-48032D01*
X79645Y-48034D01*
X79744Y-48034D01*
X79894Y-48034D01*
X79899Y-48032D01*
X79905Y-48034D01*
X80004Y-48034D01*
X80154Y-48034D01*
X80159Y-48032D01*
X80165Y-48034D01*
X80264Y-48034D01*
X80414Y-48034D01*
X80506Y-47996D01*
X80576Y-47926D01*
X80614Y-47834D01*
X80614Y-47735D01*
X80614Y-54600D01*
X80125Y-54600D01*
X80125Y-50649D01*
X80125Y-50200D01*
X80087Y-50108D01*
X80028Y-50049D01*
X80086Y-49991D01*
X80124Y-49899D01*
X80125Y-49800D01*
X80125Y-49450D01*
X80087Y-49358D01*
X80016Y-49288D01*
X79924Y-49250D01*
X79825Y-49249D01*
X79275Y-49249D01*
X79183Y-49287D01*
X79113Y-49358D01*
X79106Y-49375D01*
X78202Y-49375D01*
X78202Y-46438D01*
X78202Y-46202D01*
X78164Y-46110D01*
X78094Y-46040D01*
X78002Y-46001D01*
X77903Y-46001D01*
X77737Y-46001D01*
X77737Y-46001D01*
X77643Y-46001D01*
X77477Y-46001D01*
X77477Y-46001D01*
X77383Y-46001D01*
X77217Y-46001D01*
X77125Y-46039D01*
X77055Y-46110D01*
X77017Y-46201D01*
X77017Y-46301D01*
X77017Y-46537D01*
X77055Y-46629D01*
X77125Y-46699D01*
X77217Y-46738D01*
X77316Y-46738D01*
X77482Y-46738D01*
X77482Y-46738D01*
X77576Y-46738D01*
X77742Y-46738D01*
X77742Y-46738D01*
X77836Y-46738D01*
X78002Y-46738D01*
X78094Y-46700D01*
X78164Y-46629D01*
X78202Y-46538D01*
X78202Y-46438D01*
X78202Y-49375D01*
X75700Y-49375D01*
X75700Y-49200D01*
X75662Y-49108D01*
X75600Y-49046D01*
X75600Y-47550D01*
X75600Y-46950D01*
X75562Y-46858D01*
X75550Y-46846D01*
X75550Y-44550D01*
X75550Y-43950D01*
X75512Y-43858D01*
X75441Y-43788D01*
X75349Y-43750D01*
X75250Y-43749D01*
X74950Y-43749D01*
X74899Y-43770D01*
X74849Y-43750D01*
X74750Y-43749D01*
X74450Y-43749D01*
X74399Y-43770D01*
X74349Y-43750D01*
X74250Y-43749D01*
X73950Y-43749D01*
X73899Y-43770D01*
X73849Y-43750D01*
X73750Y-43749D01*
X73450Y-43749D01*
X73399Y-43770D01*
X73349Y-43750D01*
X73250Y-43749D01*
X72950Y-43749D01*
X72899Y-43770D01*
X72849Y-43750D01*
X72750Y-43749D01*
X72450Y-43749D01*
X72399Y-43770D01*
X72349Y-43750D01*
X72250Y-43749D01*
X71950Y-43749D01*
X71899Y-43770D01*
X71849Y-43750D01*
X71750Y-43749D01*
X71450Y-43749D01*
X71399Y-43770D01*
X71349Y-43750D01*
X71324Y-43750D01*
X72062Y-43012D01*
X72062Y-43012D01*
X72127Y-42914D01*
X72149Y-42800D01*
X72150Y-42800D01*
X72150Y-42207D01*
X72170Y-42187D01*
X72208Y-42095D01*
X72208Y-41995D01*
X72208Y-41405D01*
X72170Y-41313D01*
X72100Y-41242D01*
X72008Y-41204D01*
X71908Y-41204D01*
X71692Y-41204D01*
X71600Y-41242D01*
X71600Y-41242D01*
X71508Y-41204D01*
X71408Y-41204D01*
X71192Y-41204D01*
X71100Y-41242D01*
X71100Y-41242D01*
X71008Y-41204D01*
X70908Y-41204D01*
X70692Y-41204D01*
X70600Y-41242D01*
X70600Y-41242D01*
X70508Y-41204D01*
X70408Y-41204D01*
X70192Y-41204D01*
X70100Y-41242D01*
X70100Y-41242D01*
X70008Y-41204D01*
X69908Y-41204D01*
X69692Y-41204D01*
X69600Y-41242D01*
X69600Y-41242D01*
X69508Y-41204D01*
X69408Y-41204D01*
X69192Y-41204D01*
X69100Y-41242D01*
X69100Y-41242D01*
X69008Y-41204D01*
X68908Y-41204D01*
X68692Y-41204D01*
X68600Y-41242D01*
X68529Y-41312D01*
X68491Y-41404D01*
X68491Y-41450D01*
X66851Y-41450D01*
X66841Y-41439D01*
X66684Y-41375D01*
X66515Y-41374D01*
X66359Y-41439D01*
X66239Y-41558D01*
X66175Y-41715D01*
X66174Y-41884D01*
X66239Y-42040D01*
X66358Y-42160D01*
X66515Y-42224D01*
X66684Y-42225D01*
X66840Y-42160D01*
X66951Y-42050D01*
X68491Y-42050D01*
X68491Y-42094D01*
X68529Y-42186D01*
X68599Y-42257D01*
X68691Y-42295D01*
X68791Y-42295D01*
X69007Y-42295D01*
X69099Y-42257D01*
X69099Y-42257D01*
X69191Y-42295D01*
X69291Y-42295D01*
X69507Y-42295D01*
X69550Y-42277D01*
X69550Y-42698D01*
X69489Y-42758D01*
X69425Y-42915D01*
X69424Y-43084D01*
X69489Y-43240D01*
X69499Y-43250D01*
X68744Y-43250D01*
X68684Y-43225D01*
X68515Y-43224D01*
X68359Y-43289D01*
X68239Y-43408D01*
X68175Y-43565D01*
X68174Y-43734D01*
X68239Y-43890D01*
X68358Y-44010D01*
X68515Y-44074D01*
X68684Y-44075D01*
X68840Y-44010D01*
X68960Y-43891D01*
X68977Y-43850D01*
X69296Y-43850D01*
X69288Y-43858D01*
X69250Y-43950D01*
X69249Y-44049D01*
X69249Y-44649D01*
X69287Y-44741D01*
X69358Y-44811D01*
X69450Y-44849D01*
X69549Y-44850D01*
X69849Y-44850D01*
X69900Y-44829D01*
X69950Y-44849D01*
X70049Y-44850D01*
X70349Y-44850D01*
X70400Y-44829D01*
X70450Y-44849D01*
X70549Y-44850D01*
X70849Y-44850D01*
X70900Y-44829D01*
X70950Y-44849D01*
X71049Y-44850D01*
X71349Y-44850D01*
X71400Y-44829D01*
X71450Y-44849D01*
X71549Y-44850D01*
X71849Y-44850D01*
X71900Y-44829D01*
X71950Y-44849D01*
X72049Y-44850D01*
X72349Y-44850D01*
X72400Y-44829D01*
X72450Y-44849D01*
X72549Y-44850D01*
X72849Y-44850D01*
X72900Y-44829D01*
X72950Y-44849D01*
X73049Y-44850D01*
X73349Y-44850D01*
X73400Y-44829D01*
X73450Y-44849D01*
X73549Y-44850D01*
X73849Y-44850D01*
X73900Y-44829D01*
X73950Y-44849D01*
X74049Y-44850D01*
X74349Y-44850D01*
X74400Y-44829D01*
X74450Y-44849D01*
X74549Y-44850D01*
X74849Y-44850D01*
X74900Y-44829D01*
X74950Y-44849D01*
X75049Y-44850D01*
X75349Y-44850D01*
X75441Y-44812D01*
X75511Y-44741D01*
X75549Y-44649D01*
X75550Y-44550D01*
X75550Y-46846D01*
X75491Y-46788D01*
X75399Y-46750D01*
X75300Y-46749D01*
X75000Y-46749D01*
X74924Y-46781D01*
X74849Y-46750D01*
X74750Y-46749D01*
X74450Y-46749D01*
X74399Y-46770D01*
X74349Y-46750D01*
X74250Y-46749D01*
X73950Y-46749D01*
X73899Y-46770D01*
X73849Y-46750D01*
X73750Y-46749D01*
X73450Y-46749D01*
X73399Y-46770D01*
X73349Y-46750D01*
X73250Y-46749D01*
X72950Y-46749D01*
X72899Y-46770D01*
X72849Y-46750D01*
X72750Y-46749D01*
X72450Y-46749D01*
X72399Y-46770D01*
X72349Y-46750D01*
X72250Y-46749D01*
X71950Y-46749D01*
X71899Y-46770D01*
X71849Y-46750D01*
X71750Y-46749D01*
X71450Y-46749D01*
X71399Y-46770D01*
X71349Y-46750D01*
X71250Y-46749D01*
X70950Y-46749D01*
X70899Y-46770D01*
X70849Y-46750D01*
X70750Y-46749D01*
X70450Y-46749D01*
X70399Y-46770D01*
X70349Y-46750D01*
X70250Y-46749D01*
X69950Y-46749D01*
X69899Y-46770D01*
X69849Y-46750D01*
X69750Y-46749D01*
X69450Y-46749D01*
X69358Y-46787D01*
X69288Y-46858D01*
X69250Y-46950D01*
X69249Y-47049D01*
X69249Y-47649D01*
X69287Y-47741D01*
X69350Y-47803D01*
X69350Y-48150D01*
X69372Y-48264D01*
X69437Y-48362D01*
X70937Y-49862D01*
X70937Y-49862D01*
X71035Y-49927D01*
X71150Y-49950D01*
X73299Y-49950D01*
X73299Y-50099D01*
X73337Y-50191D01*
X73408Y-50261D01*
X73500Y-50299D01*
X73599Y-50300D01*
X74199Y-50300D01*
X74291Y-50262D01*
X74361Y-50191D01*
X74399Y-50099D01*
X74400Y-50000D01*
X74400Y-49200D01*
X74362Y-49108D01*
X74291Y-49038D01*
X74199Y-49000D01*
X74100Y-48999D01*
X73500Y-48999D01*
X73408Y-49037D01*
X73338Y-49108D01*
X73300Y-49200D01*
X73299Y-49299D01*
X73299Y-49350D01*
X71274Y-49350D01*
X71094Y-49170D01*
X71240Y-49110D01*
X71360Y-48991D01*
X71424Y-48834D01*
X71425Y-48665D01*
X71360Y-48509D01*
X71241Y-48389D01*
X71084Y-48325D01*
X70999Y-48324D01*
X70524Y-47850D01*
X70549Y-47850D01*
X70849Y-47850D01*
X70900Y-47829D01*
X70950Y-47849D01*
X71049Y-47850D01*
X71349Y-47850D01*
X71400Y-47829D01*
X71450Y-47849D01*
X71549Y-47850D01*
X71849Y-47850D01*
X71900Y-47829D01*
X71950Y-47849D01*
X72049Y-47850D01*
X72349Y-47850D01*
X72400Y-47829D01*
X72450Y-47849D01*
X72549Y-47850D01*
X72849Y-47850D01*
X72900Y-47829D01*
X72950Y-47849D01*
X73049Y-47850D01*
X73349Y-47850D01*
X73400Y-47829D01*
X73450Y-47849D01*
X73549Y-47850D01*
X73849Y-47850D01*
X73900Y-47829D01*
X73950Y-47849D01*
X74049Y-47850D01*
X74349Y-47850D01*
X74400Y-47829D01*
X74450Y-47849D01*
X74549Y-47850D01*
X74849Y-47850D01*
X74925Y-47818D01*
X75000Y-47849D01*
X75099Y-47850D01*
X75399Y-47850D01*
X75491Y-47812D01*
X75561Y-47741D01*
X75599Y-47649D01*
X75600Y-47550D01*
X75600Y-49046D01*
X75591Y-49038D01*
X75499Y-49000D01*
X75400Y-48999D01*
X74800Y-48999D01*
X74708Y-49037D01*
X74638Y-49108D01*
X74600Y-49200D01*
X74599Y-49299D01*
X74599Y-50099D01*
X74637Y-50191D01*
X74708Y-50261D01*
X74800Y-50299D01*
X74899Y-50300D01*
X75499Y-50300D01*
X75591Y-50262D01*
X75661Y-50191D01*
X75699Y-50099D01*
X75700Y-50000D01*
X75700Y-49975D01*
X79106Y-49975D01*
X79112Y-49991D01*
X79171Y-50050D01*
X79112Y-50108D01*
X79074Y-50200D01*
X79075Y-50312D01*
X79137Y-50375D01*
X79550Y-50375D01*
X79550Y-50367D01*
X79650Y-50367D01*
X79650Y-50375D01*
X80062Y-50375D01*
X80125Y-50312D01*
X80125Y-50200D01*
X80125Y-50649D01*
X80125Y-50537D01*
X80062Y-50475D01*
X79650Y-50475D01*
X79650Y-50787D01*
X79712Y-50850D01*
X79825Y-50850D01*
X79924Y-50849D01*
X80016Y-50811D01*
X80087Y-50741D01*
X80125Y-50649D01*
X80125Y-54600D01*
X79550Y-54600D01*
X79550Y-50787D01*
X79550Y-50475D01*
X79137Y-50475D01*
X79075Y-50537D01*
X79074Y-50649D01*
X79112Y-50741D01*
X79183Y-50811D01*
X79275Y-50849D01*
X79374Y-50850D01*
X79487Y-50850D01*
X79550Y-50787D01*
X79550Y-54600D01*
X79225Y-54600D01*
X79225Y-52575D01*
X79225Y-52125D01*
X79187Y-52033D01*
X79116Y-51963D01*
X79024Y-51925D01*
X78925Y-51924D01*
X78675Y-51924D01*
X78583Y-51962D01*
X78550Y-51996D01*
X78516Y-51962D01*
X78424Y-51924D01*
X78362Y-51925D01*
X78300Y-51987D01*
X78300Y-52350D01*
X78307Y-52350D01*
X78307Y-52450D01*
X78300Y-52450D01*
X78300Y-52812D01*
X78362Y-52875D01*
X78424Y-52875D01*
X78516Y-52837D01*
X78549Y-52803D01*
X78583Y-52836D01*
X78675Y-52874D01*
X78774Y-52875D01*
X79024Y-52875D01*
X79116Y-52837D01*
X79186Y-52766D01*
X79224Y-52674D01*
X79225Y-52575D01*
X79225Y-54600D01*
X78200Y-54600D01*
X78200Y-52812D01*
X78200Y-52450D01*
X78200Y-52350D01*
X78200Y-51987D01*
X78137Y-51925D01*
X78075Y-51924D01*
X77983Y-51962D01*
X77913Y-52033D01*
X77875Y-52125D01*
X77874Y-52224D01*
X77875Y-52287D01*
X77937Y-52350D01*
X78200Y-52350D01*
X78200Y-52450D01*
X77937Y-52450D01*
X77875Y-52512D01*
X77874Y-52575D01*
X77875Y-52674D01*
X77913Y-52766D01*
X77983Y-52837D01*
X78075Y-52875D01*
X78137Y-52875D01*
X78200Y-52812D01*
X78200Y-54600D01*
X75700Y-54600D01*
X75700Y-52750D01*
X75700Y-52049D01*
X75699Y-51950D01*
X75661Y-51858D01*
X75591Y-51787D01*
X75499Y-51749D01*
X75262Y-51750D01*
X75200Y-51812D01*
X75200Y-52350D01*
X75637Y-52350D01*
X75700Y-52287D01*
X75700Y-52049D01*
X75700Y-52750D01*
X75700Y-52512D01*
X75637Y-52450D01*
X75200Y-52450D01*
X75200Y-52987D01*
X75262Y-53050D01*
X75499Y-53050D01*
X75591Y-53012D01*
X75661Y-52941D01*
X75699Y-52849D01*
X75700Y-52750D01*
X75700Y-54600D01*
X75100Y-54600D01*
X75100Y-52987D01*
X75100Y-52450D01*
X75100Y-52350D01*
X75100Y-51812D01*
X75037Y-51750D01*
X74800Y-51749D01*
X74708Y-51787D01*
X74638Y-51858D01*
X74600Y-51950D01*
X74599Y-52049D01*
X74600Y-52287D01*
X74662Y-52350D01*
X75100Y-52350D01*
X75100Y-52450D01*
X74662Y-52450D01*
X74600Y-52512D01*
X74599Y-52750D01*
X74600Y-52849D01*
X74638Y-52941D01*
X74708Y-53012D01*
X74800Y-53050D01*
X75037Y-53050D01*
X75100Y-52987D01*
X75100Y-54600D01*
X74400Y-54600D01*
X74400Y-52750D01*
X74400Y-51950D01*
X74362Y-51858D01*
X74291Y-51788D01*
X74199Y-51750D01*
X74100Y-51749D01*
X73500Y-51749D01*
X73408Y-51787D01*
X73338Y-51858D01*
X73300Y-51950D01*
X73299Y-52049D01*
X73299Y-52100D01*
X71400Y-52100D01*
X71400Y-52075D01*
X71362Y-51983D01*
X71291Y-51913D01*
X71199Y-51875D01*
X71100Y-51874D01*
X70750Y-51874D01*
X70658Y-51912D01*
X70599Y-51971D01*
X70541Y-51913D01*
X70449Y-51875D01*
X70350Y-51874D01*
X70000Y-51874D01*
X69908Y-51912D01*
X69838Y-51983D01*
X69800Y-52075D01*
X69799Y-52174D01*
X69799Y-52724D01*
X69837Y-52816D01*
X69908Y-52886D01*
X70000Y-52924D01*
X70099Y-52925D01*
X70449Y-52925D01*
X70541Y-52887D01*
X70600Y-52828D01*
X70658Y-52886D01*
X70750Y-52924D01*
X70849Y-52925D01*
X71199Y-52925D01*
X71291Y-52887D01*
X71361Y-52816D01*
X71399Y-52724D01*
X71399Y-52700D01*
X73299Y-52700D01*
X73299Y-52849D01*
X73337Y-52941D01*
X73408Y-53011D01*
X73500Y-53049D01*
X73599Y-53050D01*
X74199Y-53050D01*
X74291Y-53012D01*
X74361Y-52941D01*
X74399Y-52849D01*
X74400Y-52750D01*
X74400Y-54600D01*
X69509Y-54600D01*
X69509Y-49227D01*
X69509Y-48833D01*
X69471Y-48741D01*
X69400Y-48671D01*
X69309Y-48633D01*
X69209Y-48633D01*
X69091Y-48633D01*
X69070Y-48641D01*
X69049Y-48633D01*
X68949Y-48633D01*
X68831Y-48633D01*
X68810Y-48641D01*
X68789Y-48633D01*
X68689Y-48633D01*
X68571Y-48633D01*
X68550Y-48641D01*
X68529Y-48633D01*
X68429Y-48633D01*
X68325Y-48633D01*
X68325Y-46625D01*
X68325Y-46175D01*
X68287Y-46083D01*
X68216Y-46013D01*
X68124Y-45975D01*
X68025Y-45974D01*
X67775Y-45974D01*
X67683Y-46012D01*
X67650Y-46046D01*
X67616Y-46013D01*
X67524Y-45975D01*
X67425Y-45974D01*
X67175Y-45974D01*
X67083Y-46012D01*
X67013Y-46083D01*
X66975Y-46175D01*
X66974Y-46274D01*
X66974Y-46724D01*
X67012Y-46816D01*
X67083Y-46886D01*
X67175Y-46924D01*
X67274Y-46925D01*
X67524Y-46925D01*
X67616Y-46887D01*
X67649Y-46853D01*
X67683Y-46886D01*
X67775Y-46924D01*
X67874Y-46925D01*
X68124Y-46925D01*
X68216Y-46887D01*
X68286Y-46816D01*
X68324Y-46724D01*
X68325Y-46625D01*
X68325Y-48633D01*
X68311Y-48633D01*
X68290Y-48641D01*
X68269Y-48633D01*
X68169Y-48633D01*
X68051Y-48633D01*
X68030Y-48641D01*
X68009Y-48633D01*
X67909Y-48633D01*
X67791Y-48633D01*
X67770Y-48641D01*
X67749Y-48633D01*
X67649Y-48633D01*
X67531Y-48633D01*
X67439Y-48671D01*
X67369Y-48741D01*
X67330Y-48833D01*
X67330Y-48932D01*
X67330Y-49326D01*
X67368Y-49418D01*
X67439Y-49488D01*
X67530Y-49526D01*
X67630Y-49526D01*
X67706Y-49526D01*
X67677Y-49597D01*
X67677Y-49696D01*
X67677Y-50602D01*
X67715Y-50694D01*
X67762Y-50741D01*
X67760Y-50741D01*
X67739Y-50733D01*
X67639Y-50733D01*
X67521Y-50733D01*
X67429Y-50771D01*
X67359Y-50841D01*
X67320Y-50933D01*
X67320Y-51032D01*
X67320Y-51426D01*
X67358Y-51518D01*
X67429Y-51588D01*
X67520Y-51626D01*
X67620Y-51626D01*
X67738Y-51626D01*
X67759Y-51618D01*
X67780Y-51626D01*
X67880Y-51626D01*
X67998Y-51626D01*
X68019Y-51618D01*
X68040Y-51626D01*
X68140Y-51626D01*
X68258Y-51626D01*
X68279Y-51618D01*
X68300Y-51626D01*
X68400Y-51626D01*
X68518Y-51626D01*
X68539Y-51618D01*
X68560Y-51626D01*
X68660Y-51626D01*
X68778Y-51626D01*
X68799Y-51618D01*
X68820Y-51626D01*
X68920Y-51626D01*
X69038Y-51626D01*
X69059Y-51618D01*
X69080Y-51626D01*
X69180Y-51626D01*
X69298Y-51626D01*
X69390Y-51588D01*
X69460Y-51518D01*
X69499Y-51426D01*
X69499Y-51327D01*
X69499Y-50933D01*
X69461Y-50841D01*
X69390Y-50771D01*
X69299Y-50733D01*
X69199Y-50733D01*
X69081Y-50733D01*
X69060Y-50741D01*
X69043Y-50735D01*
X69084Y-50694D01*
X69122Y-50602D01*
X69122Y-50503D01*
X69122Y-49597D01*
X69093Y-49526D01*
X69190Y-49526D01*
X69308Y-49526D01*
X69400Y-49488D01*
X69470Y-49418D01*
X69509Y-49326D01*
X69509Y-49227D01*
X69509Y-54600D01*
X65825Y-54600D01*
X65825Y-48775D01*
X65825Y-48225D01*
X65787Y-48133D01*
X65716Y-48063D01*
X65624Y-48025D01*
X65525Y-48024D01*
X65475Y-48024D01*
X65475Y-43725D01*
X65475Y-43175D01*
X65437Y-43083D01*
X65366Y-43013D01*
X65274Y-42975D01*
X65175Y-42974D01*
X64625Y-42974D01*
X64533Y-43012D01*
X64463Y-43083D01*
X64425Y-43175D01*
X64424Y-43274D01*
X64424Y-43274D01*
X64395Y-43203D01*
X64247Y-43055D01*
X64114Y-42999D01*
X64247Y-42945D01*
X64394Y-42797D01*
X64474Y-42604D01*
X64475Y-42396D01*
X64395Y-42203D01*
X64247Y-42055D01*
X64054Y-41975D01*
X63846Y-41974D01*
X63653Y-42054D01*
X63505Y-42202D01*
X63425Y-42395D01*
X63424Y-42603D01*
X63504Y-42797D01*
X63652Y-42944D01*
X63785Y-43000D01*
X63653Y-43054D01*
X63505Y-43202D01*
X63425Y-43395D01*
X63424Y-43603D01*
X63504Y-43797D01*
X63652Y-43944D01*
X63845Y-44024D01*
X64053Y-44025D01*
X64247Y-43945D01*
X64394Y-43797D01*
X64424Y-43725D01*
X64424Y-43824D01*
X64462Y-43916D01*
X64533Y-43986D01*
X64625Y-44024D01*
X64724Y-44025D01*
X65274Y-44025D01*
X65366Y-43987D01*
X65436Y-43916D01*
X65474Y-43824D01*
X65475Y-43725D01*
X65475Y-48024D01*
X64975Y-48024D01*
X64883Y-48062D01*
X64813Y-48133D01*
X64775Y-48225D01*
X64774Y-48324D01*
X64774Y-48324D01*
X64745Y-48253D01*
X64597Y-48105D01*
X64464Y-48049D01*
X64597Y-47995D01*
X64744Y-47847D01*
X64824Y-47654D01*
X64825Y-47446D01*
X64745Y-47253D01*
X64597Y-47105D01*
X64404Y-47025D01*
X64196Y-47024D01*
X64003Y-47104D01*
X63855Y-47252D01*
X63775Y-47445D01*
X63774Y-47653D01*
X63854Y-47847D01*
X64002Y-47994D01*
X64135Y-48050D01*
X64003Y-48104D01*
X63855Y-48252D01*
X63775Y-48445D01*
X63774Y-48653D01*
X63854Y-48847D01*
X64002Y-48994D01*
X64195Y-49074D01*
X64403Y-49075D01*
X64597Y-48995D01*
X64744Y-48847D01*
X64774Y-48775D01*
X64774Y-48874D01*
X64812Y-48966D01*
X64883Y-49036D01*
X64975Y-49074D01*
X65074Y-49075D01*
X65624Y-49075D01*
X65716Y-49037D01*
X65786Y-48966D01*
X65824Y-48874D01*
X65825Y-48775D01*
X65825Y-54600D01*
X62100Y-54600D01*
X62100Y-38350D01*
X64998Y-38350D01*
X64989Y-38358D01*
X64925Y-38515D01*
X64924Y-38684D01*
X64989Y-38840D01*
X65108Y-38960D01*
X65265Y-39024D01*
X65434Y-39025D01*
X65590Y-38960D01*
X65701Y-38850D01*
X70425Y-38850D01*
X70550Y-38974D01*
X70550Y-39092D01*
X70508Y-39074D01*
X70408Y-39074D01*
X70192Y-39074D01*
X70100Y-39112D01*
X70100Y-39112D01*
X70008Y-39074D01*
X69908Y-39074D01*
X69692Y-39074D01*
X69600Y-39112D01*
X69600Y-39112D01*
X69508Y-39074D01*
X69408Y-39074D01*
X69192Y-39074D01*
X69100Y-39112D01*
X69100Y-39112D01*
X69008Y-39074D01*
X68908Y-39074D01*
X68692Y-39074D01*
X68600Y-39112D01*
X68529Y-39182D01*
X68491Y-39274D01*
X68491Y-39374D01*
X68491Y-39964D01*
X68529Y-40056D01*
X68599Y-40127D01*
X68691Y-40165D01*
X68791Y-40165D01*
X69007Y-40165D01*
X69099Y-40127D01*
X69099Y-40127D01*
X69191Y-40165D01*
X69291Y-40165D01*
X69507Y-40165D01*
X69599Y-40127D01*
X69599Y-40127D01*
X69691Y-40165D01*
X69791Y-40165D01*
X70007Y-40165D01*
X70099Y-40127D01*
X70099Y-40127D01*
X70191Y-40165D01*
X70291Y-40165D01*
X70507Y-40165D01*
X70599Y-40127D01*
X70599Y-40127D01*
X70691Y-40165D01*
X70791Y-40165D01*
X71007Y-40165D01*
X71099Y-40127D01*
X71099Y-40127D01*
X71191Y-40165D01*
X71291Y-40165D01*
X71507Y-40165D01*
X71599Y-40127D01*
X71599Y-40127D01*
X71691Y-40165D01*
X71791Y-40165D01*
X72007Y-40165D01*
X72099Y-40127D01*
X72170Y-40057D01*
X72208Y-39965D01*
X72208Y-39920D01*
X72595Y-39920D01*
X73025Y-40349D01*
X73025Y-41406D01*
X73008Y-41412D01*
X72938Y-41483D01*
X72900Y-41575D01*
X72899Y-41674D01*
X72899Y-42224D01*
X72937Y-42316D01*
X73008Y-42386D01*
X73100Y-42424D01*
X73199Y-42425D01*
X73549Y-42425D01*
X73641Y-42387D01*
X73700Y-42328D01*
X73758Y-42386D01*
X73850Y-42424D01*
X73949Y-42425D01*
X74299Y-42425D01*
X74391Y-42387D01*
X74461Y-42316D01*
X74499Y-42224D01*
X74500Y-42125D01*
X74500Y-41575D01*
X74462Y-41483D01*
X74418Y-41440D01*
X74490Y-41410D01*
X74610Y-41291D01*
X74674Y-41134D01*
X74675Y-40965D01*
X74610Y-40809D01*
X74491Y-40689D01*
X74334Y-40625D01*
X74165Y-40624D01*
X74009Y-40689D01*
X73889Y-40808D01*
X73825Y-40965D01*
X73824Y-41069D01*
X73824Y-41069D01*
X73797Y-41110D01*
X73775Y-41225D01*
X73775Y-41406D01*
X73758Y-41412D01*
X73699Y-41471D01*
X73641Y-41413D01*
X73625Y-41406D01*
X73625Y-40225D01*
X73624Y-40224D01*
X73602Y-40110D01*
X73537Y-40012D01*
X73537Y-40012D01*
X72932Y-39407D01*
X72834Y-39342D01*
X72720Y-39320D01*
X72208Y-39320D01*
X72208Y-39275D01*
X72170Y-39183D01*
X72100Y-39112D01*
X72068Y-39100D01*
X72699Y-39100D01*
X72808Y-39210D01*
X72965Y-39274D01*
X73134Y-39275D01*
X73290Y-39210D01*
X73410Y-39091D01*
X73474Y-38934D01*
X73475Y-38765D01*
X73410Y-38609D01*
X73291Y-38489D01*
X73134Y-38425D01*
X72965Y-38424D01*
X72809Y-38489D01*
X72799Y-38500D01*
X71400Y-38500D01*
X71285Y-38522D01*
X71187Y-38587D01*
X71137Y-38637D01*
X71100Y-38694D01*
X71062Y-38637D01*
X71062Y-38637D01*
X70774Y-38350D01*
X82350Y-38350D01*
X82350Y-54600D01*
M02*
